<svg width="1208" height="2447" viewBox="0 0 1208 2447" fill="none" xmlns="http://www.w3.org/2000/svg">
<path d="M519.681 411.241C525.178 411.241 530.891 411.992 536.82 413.494C542.748 414.888 548.192 417.14 553.15 420.25C558.108 423.253 562.204 427.168 565.438 431.994C568.672 436.713 570.289 442.397 570.289 449.046C570.289 453.122 569.696 456.983 568.51 460.629C567.324 464.276 565.815 467.761 563.983 471.086C562.258 474.303 560.318 477.306 558.162 480.095C556.114 482.883 554.174 485.511 552.341 487.978C550.617 490.337 549.162 492.482 547.976 494.412C546.79 496.343 546.197 498.059 546.197 499.56C546.197 501.813 547.491 503.636 550.078 505.03C552.773 506.424 556.222 507.121 560.426 507.121C564.306 507.121 568.025 506.424 571.582 505.03C575.139 503.529 578.265 501.169 580.96 497.952C583.655 494.627 585.81 490.337 587.427 485.082C589.044 479.719 589.853 473.231 589.853 465.616V360.084C589.853 355.365 589.206 351.718 587.912 349.145C586.619 346.463 585.002 344.479 583.062 343.192C581.229 341.905 579.181 341.047 576.918 340.618C574.654 340.082 572.552 339.546 570.612 339.01C568.78 338.366 567.217 337.508 565.923 336.436C564.63 335.256 563.983 333.379 563.983 330.805C563.983 317.506 570.881 307.908 584.679 302.009C598.584 296.003 618.74 293 645.149 293C657.868 293 669.132 293.751 678.941 295.252C688.858 296.646 697.158 298.899 703.841 302.009C710.632 305.012 715.752 308.926 719.201 313.753C722.758 318.471 724.536 324.156 724.536 330.805C724.536 333.379 723.89 335.256 722.596 336.436C721.303 337.508 719.686 338.366 717.746 339.01C715.805 339.546 713.704 340.082 711.44 340.618C709.284 341.155 707.236 342.12 705.296 343.514C703.356 344.801 701.739 346.785 700.445 349.466C699.152 352.04 698.505 355.687 698.505 360.406V465.616C698.505 475.483 696.996 484.546 693.978 492.804C691.068 500.955 687.025 508.301 681.852 514.843C676.678 521.278 670.534 526.909 663.419 531.735C656.305 536.561 648.598 540.583 640.298 543.8C631.999 547.018 623.214 549.377 613.944 550.879C604.781 552.487 595.512 553.292 586.134 553.292C576.54 553.292 566.947 552.434 557.354 550.718C547.868 549.109 538.76 546.696 530.029 543.479C521.406 540.154 513.375 536.078 505.938 531.252C498.5 526.319 492.033 520.635 486.536 514.2C481.146 507.658 476.888 500.365 473.762 492.321C470.744 484.17 469.235 475.269 469.235 465.616C469.235 458.431 470.367 451.567 472.631 445.025C474.894 438.375 478.182 432.584 482.493 427.65C486.805 422.61 492.087 418.641 498.339 415.746C504.59 412.743 511.705 411.241 519.681 411.241Z" fill="white"/>
<path d="M542.155 762.439H592.763L567.863 668.811L542.155 762.439ZM500.44 865.558C492.464 865.558 485.458 864.539 479.421 862.502C473.385 860.464 468.319 857.729 464.223 854.297C460.235 850.758 457.217 846.736 455.169 842.232C453.121 837.62 452.097 832.74 452.097 827.592C452.097 825.018 452.689 823.195 453.875 822.123C455.061 820.943 456.624 820.031 458.564 819.388C460.504 818.744 462.66 818.155 465.031 817.618C467.511 817.082 469.99 816.117 472.469 814.723C474.948 813.328 477.319 811.344 479.583 808.77C481.847 806.089 483.787 802.282 485.404 797.348L525.178 676.694C525.933 674.442 526.472 672.458 526.795 670.742C527.226 669.026 527.442 667.524 527.442 666.237C527.442 662.913 526.526 660.66 524.693 659.481C522.861 658.301 520.813 657.389 518.549 656.746C516.393 656.102 514.399 655.351 512.567 654.494C510.734 653.528 509.818 651.651 509.818 648.863C509.818 648.112 509.872 647.522 509.98 647.093C511.058 639.693 514.022 633.58 518.873 628.754C523.723 623.82 530.137 619.96 538.113 617.171C546.197 614.275 555.683 612.238 566.57 611.058C577.457 609.878 589.475 609.288 602.626 609.288C613.728 609.288 624.345 609.717 634.478 610.575C644.718 611.326 653.934 613.042 662.126 615.723C670.318 618.404 677.163 622.212 682.66 627.145C688.157 632.079 691.768 638.728 693.493 647.093C693.708 648.166 693.816 648.917 693.816 649.346C693.816 651.169 693.277 652.563 692.199 653.528C691.229 654.386 689.99 655.083 688.481 655.62C686.972 656.156 685.355 656.638 683.63 657.067C681.905 657.389 680.289 657.925 678.78 658.676C677.27 659.427 675.977 660.553 674.899 662.055C673.929 663.449 673.444 665.433 673.444 668.007C673.444 670.259 673.929 673.155 674.899 676.694L710.632 797.348C712.033 802.175 713.811 805.928 715.967 808.609C718.123 811.291 720.387 813.328 722.758 814.723C725.237 816.117 727.662 817.082 730.034 817.618C732.513 818.155 734.723 818.744 736.663 819.388C738.603 820.031 740.166 820.943 741.352 822.123C742.537 823.195 743.13 825.018 743.13 827.592C743.13 840.998 736.178 850.704 722.273 856.71C708.368 862.609 688.265 865.558 661.964 865.558C649.245 865.558 637.927 864.861 628.01 863.467C618.201 861.965 609.902 859.713 603.111 856.71C596.32 853.6 591.146 849.632 587.589 844.806C584.14 839.98 582.415 834.242 582.415 827.592C582.415 825.34 582.9 823.678 583.87 822.605C584.948 821.426 586.242 820.568 587.751 820.031C589.26 819.388 590.93 818.852 592.763 818.423C594.595 817.994 596.266 817.404 597.775 816.653C599.284 815.795 600.524 814.615 601.494 813.114C602.572 811.505 603.111 809.253 603.111 806.357C603.111 803.89 602.733 801.102 601.979 797.992L599.392 786.892H533.748L529.867 797.992C528.466 802.067 527.765 805.392 527.765 807.966C527.765 810.433 528.25 812.363 529.22 813.757C530.298 815.044 531.592 816.063 533.101 816.814C534.61 817.457 536.281 817.994 538.113 818.423C539.946 818.852 541.616 819.388 543.125 820.031C544.634 820.568 545.874 821.426 546.844 822.605C547.922 823.785 548.461 825.447 548.461 827.592C548.461 832.74 547.437 837.62 545.389 842.232C543.341 846.736 540.269 850.758 536.173 854.297C532.185 857.729 527.172 860.464 521.136 862.502C515.208 864.539 508.309 865.558 500.44 865.558Z" fill="white"/>
<path d="M610.872 1185.87C596.751 1185.87 583.762 1184.31 571.905 1181.2C560.049 1177.99 549.269 1173.53 539.568 1167.85C529.975 1162.17 521.513 1155.41 514.184 1147.58C506.854 1139.75 500.71 1131.17 495.752 1121.84C490.793 1112.51 487.021 1102.64 484.434 1092.24C481.954 1081.73 480.715 1070.95 480.715 1059.91C480.715 1047.25 481.793 1035.08 483.949 1023.39C486.104 1011.59 489.554 1000.54 494.296 990.247C499.039 979.952 505.183 970.567 512.729 962.095C520.274 953.622 529.436 946.383 540.215 940.377C550.994 934.264 563.444 929.545 577.564 926.22C591.793 922.895 607.961 921.233 626.07 921.233C638.035 921.233 649.407 922.842 660.186 926.059C670.965 929.277 680.396 933.888 688.481 939.894C696.673 945.793 703.14 953.032 707.883 961.612C712.733 970.085 715.159 979.576 715.159 990.087C715.159 994.376 714.458 998.237 713.057 1001.67C711.763 1005.1 709.877 1008 707.398 1010.36C705.026 1012.72 702.17 1014.54 698.829 1015.83C695.595 1017.11 692.092 1017.76 688.319 1017.76C684.977 1017.76 681.636 1017.22 678.294 1016.15C674.953 1015.08 671.773 1013.31 668.755 1010.84C665.737 1008.27 662.988 1004.99 660.509 1001.03C658.138 996.95 656.251 991.963 654.85 986.065C652.91 977.699 649.622 971.372 644.987 967.082C640.352 962.685 635.394 960.486 630.112 960.486C626.124 960.486 622.136 961.719 618.147 964.186C614.267 966.653 610.764 970.46 607.638 975.608C604.62 980.649 602.141 987.084 600.2 994.913C598.26 1002.74 597.29 1012.02 597.29 1022.74C597.29 1036.9 598.098 1049.23 599.715 1059.74C601.332 1070.15 603.542 1079.05 606.344 1086.45C609.255 1093.85 612.596 1099.91 616.369 1104.63C620.249 1109.35 624.399 1113.05 628.819 1115.73C633.238 1118.41 637.819 1120.29 642.562 1121.36C647.305 1122.32 652.048 1122.81 656.79 1122.81C661.641 1122.81 666.384 1122.27 671.019 1121.2C675.654 1120.02 679.857 1118.62 683.63 1117.01C687.511 1115.3 690.798 1113.53 693.493 1111.71C696.295 1109.78 698.343 1108.01 699.637 1106.4C701.254 1104.25 702.978 1102.7 704.811 1101.73C706.751 1100.66 708.53 1100.12 710.146 1100.12C713.165 1100.12 715.752 1101.68 717.907 1104.79C720.063 1107.9 721.141 1112.19 721.141 1117.66C721.141 1126.24 718.446 1134.6 713.057 1142.75C707.775 1150.91 700.284 1158.2 690.583 1164.63C680.881 1170.96 669.24 1176.11 655.658 1180.08C642.185 1183.94 627.256 1185.87 610.872 1185.87Z" fill="white"/>
<path d="M647.251 1309.27C650.377 1307.34 652.371 1305.41 653.233 1303.48C654.096 1301.44 654.527 1299.78 654.527 1298.49C654.527 1296.67 653.61 1295.06 651.778 1293.67C650.053 1292.16 648.059 1290.66 645.796 1289.16C643.64 1287.55 641.646 1285.84 639.813 1284.01C638.089 1282.19 637.226 1279.99 637.226 1277.42C637.226 1270.55 638.897 1264.82 642.239 1260.2C645.688 1255.59 650.161 1251.95 655.658 1249.27C661.264 1246.58 667.569 1244.71 674.576 1243.63C681.69 1242.45 688.912 1241.86 696.242 1241.86C704.865 1241.86 713.003 1242.51 720.656 1243.8C728.417 1245.08 735.208 1247.07 741.028 1249.75C746.849 1252.43 751.484 1255.91 754.933 1260.2C758.383 1264.49 760.107 1269.59 760.107 1275.49C760.107 1279.24 759.083 1282.24 757.035 1284.5C755.095 1286.75 752.4 1288.68 748.951 1290.29C745.609 1291.79 741.729 1293.13 737.31 1294.31C732.89 1295.38 728.309 1296.67 723.566 1298.17C718.824 1299.67 714.027 1301.6 709.176 1303.96C704.434 1306.21 700.014 1309.22 695.918 1312.97L661.803 1344.34L729.387 1429.92C732.729 1434.21 736.016 1437.54 739.25 1439.9C742.591 1442.26 745.717 1444.14 748.628 1445.53C751.538 1446.92 754.233 1448.05 756.712 1448.91C759.191 1449.66 761.347 1450.57 763.179 1451.64C765.012 1452.72 766.413 1454.22 767.383 1456.15C768.461 1457.97 769 1460.65 769 1464.19C769 1476.1 762.371 1484.73 749.113 1490.09C735.962 1495.45 716.883 1498.13 691.876 1498.13C679.372 1498.13 668.162 1497.38 658.245 1495.88C648.329 1494.38 639.867 1492.08 632.861 1488.97C625.962 1485.75 620.681 1481.73 617.016 1476.9C613.351 1471.97 611.518 1466.07 611.518 1459.2C611.518 1456.52 612.435 1454.48 614.267 1453.09C616.207 1451.7 618.309 1450.52 620.573 1449.55C622.836 1448.48 624.884 1447.41 626.717 1446.33C628.657 1445.26 629.627 1443.65 629.627 1441.51C629.627 1440.11 629.142 1438.61 628.172 1437C627.31 1435.29 625.908 1433.14 623.968 1430.57L596.158 1394.37C595.08 1392.98 593.787 1391.91 592.278 1391.15C590.769 1390.3 589.152 1389.65 587.427 1389.22C585.81 1388.8 584.032 1388.58 582.092 1388.58C580.259 1388.47 578.427 1388.42 576.594 1388.42H573.361V1429.92C573.361 1434.75 574.007 1438.5 575.301 1441.19C576.594 1443.87 578.211 1445.9 580.151 1447.3C582.092 1448.69 584.194 1449.66 586.457 1450.19C588.721 1450.73 590.823 1451.32 592.763 1451.96C594.703 1452.61 596.32 1453.52 597.613 1454.7C598.907 1455.77 599.554 1457.6 599.554 1460.17C599.554 1473.58 592.601 1483.28 578.696 1489.29C564.791 1495.19 544.688 1498.13 518.388 1498.13C505.668 1498.13 494.35 1497.44 484.434 1496.04C474.625 1494.54 466.325 1492.29 459.534 1489.29C452.851 1486.18 447.731 1482.21 444.174 1477.38C440.725 1472.56 439 1466.82 439 1460.17C439 1457.6 439.647 1455.77 440.94 1454.7C442.234 1453.52 443.797 1452.66 445.629 1452.13C447.569 1451.48 449.617 1450.89 451.773 1450.36C454.037 1449.82 456.085 1448.91 457.917 1447.62C459.857 1446.23 461.474 1444.24 462.768 1441.67C464.061 1439.09 464.708 1435.39 464.708 1430.57V1309.27C464.708 1304.55 464.061 1300.91 462.768 1298.33C461.474 1295.65 459.857 1293.67 457.917 1292.38C456.085 1290.98 454.037 1290.02 451.773 1289.48C449.617 1288.95 447.569 1288.41 445.629 1287.87C443.797 1287.23 442.234 1286.37 440.94 1285.3C439.647 1284.12 439 1282.24 439 1279.67C439 1273.02 440.725 1267.34 444.174 1262.62C447.731 1257.79 452.851 1253.88 459.534 1250.87C466.325 1247.76 474.625 1245.51 484.434 1244.12C494.35 1242.62 505.668 1241.86 518.388 1241.86C531.538 1241.86 543.179 1242.62 553.312 1244.12C563.444 1245.51 571.905 1247.76 578.696 1250.87C585.595 1253.88 590.769 1257.79 594.218 1262.62C597.775 1267.34 599.554 1273.02 599.554 1279.67C599.554 1282.24 598.907 1284.12 597.613 1285.3C596.32 1286.37 594.703 1287.23 592.763 1287.87C590.823 1288.41 588.721 1288.95 586.457 1289.48C584.194 1290.02 582.092 1290.98 580.151 1292.38C578.211 1293.67 576.594 1295.65 575.301 1298.33C574.007 1300.91 573.361 1304.55 573.361 1309.27V1359.46C576.379 1359.46 579.559 1359.3 582.9 1358.98C586.242 1358.66 589.26 1357.48 591.954 1355.44L647.251 1309.27Z" fill="white"/>
<path d="M612.488 1693.13C617.447 1693.13 621.435 1691.95 624.453 1689.59C627.471 1687.23 629.735 1684.22 631.244 1680.58C632.753 1676.93 633.723 1672.86 634.154 1668.35C634.693 1663.85 634.963 1659.5 634.963 1655.32C634.963 1652.53 634.909 1649.96 634.801 1647.6C634.693 1645.24 634.639 1643.09 634.639 1641.16C634.639 1635.05 634.37 1628.94 633.831 1622.82C633.4 1616.6 632.214 1611.03 630.274 1606.09C628.441 1601.16 625.639 1597.14 621.866 1594.03C618.094 1590.92 612.974 1589.36 606.506 1589.36C602.41 1589.36 599.176 1590.06 596.805 1591.45C594.541 1592.74 592.817 1594.56 591.631 1596.92C590.553 1599.28 589.853 1602.02 589.529 1605.13C589.314 1608.13 589.206 1611.4 589.206 1614.94V1691.52C589.529 1691.84 590.553 1692.11 592.278 1692.32C593.787 1692.54 596.05 1692.75 599.069 1692.96C602.195 1693.07 606.668 1693.13 612.488 1693.13ZM627.687 1558.15C647.951 1558.15 665.575 1560.51 680.558 1565.23C695.649 1569.84 708.152 1575.96 718.069 1583.57C728.094 1591.08 735.531 1599.71 740.382 1609.47C745.34 1619.12 747.819 1628.99 747.819 1639.07C747.819 1649.48 745.232 1659.72 740.058 1669.8C734.992 1679.77 727.393 1688.67 717.261 1696.5C707.236 1704.33 694.732 1710.66 679.75 1715.49C664.767 1720.21 647.413 1722.57 627.687 1722.57C625.962 1722.57 623.268 1722.57 619.603 1722.57C615.938 1722.46 612.057 1722.4 607.961 1722.4C603.973 1722.3 600.146 1722.24 596.482 1722.24C592.817 1722.14 590.176 1722.03 588.559 1721.92V1746.21C588.559 1751.04 589.206 1754.79 590.499 1757.47C591.793 1760.16 593.41 1762.19 595.35 1763.59C597.29 1764.98 599.392 1765.95 601.656 1766.48C603.919 1767.02 606.021 1767.61 607.961 1768.25C609.902 1768.9 611.518 1769.81 612.812 1770.99C614.105 1772.06 614.752 1773.88 614.752 1776.46C614.752 1789.86 607.8 1799.57 593.895 1805.58C579.99 1811.47 559.887 1814.42 533.586 1814.42C520.867 1814.42 509.549 1813.73 499.632 1812.33C489.823 1810.83 481.523 1808.58 474.732 1805.58C468.049 1802.47 462.929 1798.5 459.372 1793.67C455.923 1788.84 454.198 1783.11 454.198 1776.46C454.198 1773.88 454.845 1772.06 456.139 1770.99C457.432 1769.81 458.995 1768.95 460.828 1768.41C462.768 1767.77 464.816 1767.18 466.972 1766.64C469.235 1766.11 471.283 1765.2 473.116 1763.91C475.056 1762.52 476.673 1760.53 477.966 1757.96C479.26 1755.38 479.906 1751.68 479.906 1746.86V1625.56C479.906 1620.84 479.26 1617.19 477.966 1614.62C476.673 1611.94 475.056 1609.95 473.116 1608.67C471.283 1607.27 469.235 1606.31 466.972 1605.77C464.816 1605.24 462.768 1604.7 460.828 1604.16C458.995 1603.52 457.432 1602.66 456.139 1601.59C454.845 1600.41 454.198 1598.53 454.198 1595.96C454.198 1589.42 455.869 1583.79 459.211 1579.07C462.66 1574.24 467.672 1570.27 474.247 1567.16C480.823 1564.05 488.907 1561.8 498.5 1560.41C508.094 1558.9 519.088 1558.15 531.484 1558.15H627.687Z" fill="white"/>
<path d="M591.469 2134.73C575.193 2134.73 560.48 2133.18 547.329 2130.07C534.179 2126.85 522.537 2122.4 512.405 2116.72C502.273 2111.03 493.542 2104.27 486.212 2096.45C478.882 2088.62 472.846 2080.04 468.103 2070.71C463.361 2061.38 459.857 2051.51 457.594 2041.11C455.438 2030.6 454.36 2019.82 454.36 2008.77C454.36 1996.11 455.061 1983.94 456.462 1972.25C457.971 1960.45 460.666 1949.41 464.546 1939.11C468.535 1928.82 474.032 1919.43 481.038 1910.96C488.045 1902.49 497.099 1895.25 508.201 1889.24C519.412 1883.13 532.939 1878.41 548.784 1875.09C564.63 1871.76 583.385 1870.1 605.051 1870.1C622.513 1870.1 638.035 1871.71 651.616 1874.92C665.198 1878.03 677.055 1882.43 687.187 1888.12C697.427 1893.8 705.997 1900.56 712.895 1908.39C719.902 1916.11 725.561 1924.58 729.872 1933.8C734.292 1942.92 737.417 1952.63 739.25 1962.92C741.19 1973.22 742.16 1983.67 742.16 1994.29C742.16 2006.3 741.406 2018.15 739.897 2029.84C738.495 2041.43 735.801 2052.42 731.812 2062.82C727.932 2073.23 722.435 2082.83 715.32 2091.62C708.314 2100.41 699.206 2108.03 687.996 2114.46C676.893 2120.79 663.419 2125.78 647.574 2129.42C631.729 2132.96 613.027 2134.73 591.469 2134.73ZM600.685 2092.42C605.536 2092.42 609.47 2091.08 612.488 2088.4C615.614 2085.72 618.04 2081.86 619.764 2076.82C621.597 2071.78 622.836 2065.61 623.483 2058.32C624.238 2051.03 624.615 2042.77 624.615 2033.54V2026.31C624.615 2018.15 624.561 2009.74 624.453 2001.05C624.345 1992.25 624.022 1983.67 623.483 1975.31C622.944 1966.84 622.028 1958.85 620.734 1951.34C619.549 1943.83 617.824 1937.24 615.561 1931.55C613.405 1925.76 610.602 1921.2 607.153 1917.88C603.811 1914.55 599.661 1912.89 594.703 1912.89C589.637 1912.89 585.541 1914.07 582.415 1916.43C579.289 1918.68 576.864 1922.06 575.139 1926.56C573.522 1930.96 572.39 1936.43 571.744 1942.97C571.205 1949.52 570.935 1957.08 570.935 1965.66C570.935 1973.49 570.989 1982.07 571.097 1991.4C571.205 2000.73 571.528 2010.11 572.067 2019.55C572.606 2028.88 573.468 2037.94 574.654 2046.74C575.84 2055.53 577.511 2063.31 579.666 2070.06C581.93 2076.82 584.732 2082.24 588.074 2086.31C591.523 2090.39 595.727 2092.42 600.685 2092.42Z" fill="white"/>
<path d="M652.748 2378.79C652.748 2383.62 653.395 2387.37 654.688 2390.05C655.982 2392.73 657.599 2394.77 659.539 2396.16C661.479 2397.56 663.581 2398.52 665.845 2399.06C668.108 2399.6 670.21 2400.19 672.15 2400.83C674.091 2401.47 675.707 2402.38 677.001 2403.56C678.294 2404.64 678.941 2406.46 678.941 2409.03C678.941 2422.44 671.989 2432.15 658.084 2438.15C644.179 2444.05 624.076 2447 597.775 2447C585.056 2447 573.738 2446.3 563.821 2444.91C554.012 2443.41 545.712 2441.15 538.922 2438.15C532.239 2435.04 527.119 2431.07 523.561 2426.25C520.112 2421.42 518.388 2415.68 518.388 2409.03C518.388 2406.46 519.034 2404.64 520.328 2403.56C521.621 2402.38 523.184 2401.53 525.017 2400.99C526.957 2400.35 529.005 2399.76 531.161 2399.22C533.424 2398.68 535.472 2397.77 537.305 2396.49C539.245 2395.09 540.862 2393.11 542.155 2390.53C543.449 2387.96 544.096 2384.26 544.096 2379.43V2225.32L525.987 2225.96L519.681 2251.7C517.956 2257.49 515.854 2262.37 513.375 2266.34C510.896 2270.31 508.201 2273.58 505.291 2276.15C502.381 2278.62 499.309 2280.44 496.075 2281.62C492.841 2282.7 489.554 2283.23 486.212 2283.23C482.439 2283.23 478.882 2282.59 475.541 2281.3C472.307 2280.01 469.451 2278.19 466.972 2275.83C464.6 2273.47 462.714 2270.58 461.313 2267.14C460.019 2263.71 459.372 2259.85 459.372 2255.56C459.372 2249.13 460.289 2242.16 462.121 2234.65C464.061 2227.03 466.918 2220.01 470.69 2213.57C474.571 2207.03 479.421 2201.62 485.242 2197.33C491.063 2192.93 497.907 2190.73 505.776 2190.73H691.229C699.098 2190.73 705.889 2192.87 711.602 2197.16C717.422 2201.45 722.219 2206.87 725.992 2213.41C729.872 2219.85 732.729 2226.82 734.561 2234.33C736.501 2241.83 737.471 2248.8 737.471 2255.24C737.471 2259.53 736.771 2263.39 735.369 2266.82C734.076 2270.25 732.244 2273.15 729.872 2275.51C727.501 2277.87 724.644 2279.69 721.303 2280.98C718.069 2282.27 714.566 2282.91 710.793 2282.91C707.452 2282.91 704.11 2282.37 700.769 2281.3C697.427 2280.23 694.247 2278.46 691.229 2275.99C688.211 2273.42 685.463 2270.15 682.983 2266.18C680.612 2262.1 678.726 2257.12 677.324 2251.22L671.019 2225.64L652.748 2225V2378.79Z" fill="white"/>
<path d="M91.8247 149.505C90.8508 147.5 88.1443 146.565 83.7055 146.698C79.3379 146.797 73.4439 148.661 66.0235 152.29C60.8863 154.802 56.9933 157.149 54.3444 159.33C51.6955 161.511 49.8819 163.594 48.9036 165.578C47.9618 167.456 47.642 169.252 47.9444 170.964C48.212 172.605 48.711 174.177 49.4415 175.68C50.9372 178.758 53.686 180.779 57.6879 181.746C61.7263 182.605 66.6045 182.922 72.3223 182.694C78.1115 182.432 84.5429 181.856 91.6164 180.966C98.6899 180.075 106.028 179.366 113.63 178.837C121.198 178.236 128.814 178.1 136.479 178.426C144.144 178.752 151.409 179.983 158.275 182.118C165.212 184.217 171.551 187.54 177.292 192.085C183.104 196.595 187.906 202.751 191.698 210.552C196.568 220.573 198.728 229.925 198.18 238.608C197.631 247.292 194.905 255.402 190.002 262.938C185.17 270.439 178.444 277.405 169.824 283.835C161.275 290.23 151.4 296.167 140.198 301.645C133.634 304.855 126.862 307.547 119.882 309.72C112.902 311.894 106.035 313.48 99.2795 314.481C92.4896 315.41 85.9008 315.753 79.5132 315.51C73.1621 315.161 67.2966 314.176 61.9168 312.555C56.5735 310.828 51.8228 308.412 47.6649 305.307C43.5434 302.096 40.3175 298.093 37.9869 293.298C36.2129 289.647 35.2359 286.183 35.0557 282.905C34.8755 279.627 35.2955 276.675 36.3158 274.05C37.3726 271.319 38.9053 268.93 40.9138 266.885C42.9223 264.84 45.2465 263.172 47.8865 261.881C51.0972 260.31 54.6037 259.349 58.4057 258.995C62.2078 258.642 65.9671 259.018 69.6836 260.124C73.4001 261.23 76.878 263.116 80.1173 265.784C83.428 268.417 86.1617 271.953 88.3183 276.39C88.84 277.464 89.8961 278.365 91.4863 279.093C93.1479 279.786 95.2028 280.199 97.651 280.33C100.136 280.355 103.015 280.01 106.288 279.296C109.561 278.581 113.089 277.299 116.87 275.449C122.15 272.867 126.203 270.486 129.029 268.307C131.821 266.056 133.759 263.956 134.844 262.009C135.999 260.026 136.479 258.197 136.283 256.521C136.087 254.845 135.641 253.292 134.945 251.86C134.076 250.071 131.99 249.142 128.689 249.073C125.389 249.004 121.267 249.336 116.325 250.07C111.349 250.732 105.695 251.637 99.3644 252.784C93.1052 253.896 86.5999 254.774 79.8483 255.419C73.062 255.991 66.1557 256.135 59.1295 255.851C52.1746 255.532 45.5305 254.307 39.1972 252.178C32.8292 249.977 26.9512 246.695 21.5633 242.332C16.1406 237.897 11.5857 231.886 7.8986 224.299C4.24627 216.784 1.86844 209.62 0.765108 202.807C-0.266871 195.959 -0.254899 189.442 0.801023 183.256C1.9283 177.035 4.02817 171.18 7.10064 165.692C10.1383 160.131 13.9711 154.935 18.5991 150.102C23.2635 145.164 28.6161 140.642 34.6568 136.536C40.734 132.324 47.3045 128.49 54.3681 125.036C66.9971 118.86 78.3614 114.897 88.4611 113.146C98.5973 111.29 107.422 111.005 114.935 112.291C122.448 113.578 128.654 116.08 133.551 119.797C138.485 123.408 142.082 127.54 144.343 132.192C146.396 136.415 147.278 140.501 146.99 144.451C146.702 148.401 145.618 152.076 143.738 155.476C141.858 158.876 139.324 161.931 136.138 164.641C132.951 167.351 129.502 169.613 125.792 171.427C122.225 173.172 118.537 174.488 114.73 175.376C110.994 176.228 107.423 176.513 104.018 176.229C100.684 175.911 97.6574 175.044 94.9381 173.627C92.2553 172.105 90.2008 169.876 88.7747 166.941C87.7311 164.794 87.4123 162.957 87.8181 161.43C88.2952 159.868 88.9307 158.45 89.7244 157.176C90.5895 155.867 91.3119 154.627 91.8917 153.458C92.5427 152.254 92.5204 150.936 91.8247 149.505Z" fill="white"/>
<path d="M416.436 141.713C418.322 149.202 419.022 156.21 418.537 162.739C418.053 169.268 416.595 175.345 414.164 180.971C411.713 186.52 408.366 191.598 404.122 196.204C399.956 200.792 395.143 204.927 389.685 208.609C384.207 212.215 378.208 215.377 371.688 218.097C365.168 220.817 358.33 223.083 351.172 224.897C342.63 227.062 334.307 228.637 326.205 229.622C318.102 230.608 310.354 230.887 302.96 230.461C295.643 230.016 288.796 228.835 282.419 226.92C276.042 225.004 270.26 222.199 265.072 218.503C259.961 214.789 255.57 210.193 251.899 204.718C248.208 199.165 245.41 192.605 243.505 185.04L224.435 109.305C223.579 105.908 222.457 103.4 221.066 101.781C219.657 100.085 218.143 98.9493 216.524 98.3738C214.963 97.7017 213.326 97.3774 211.613 97.401C209.976 97.405 208.417 97.3895 206.934 97.3545C205.509 97.2228 204.238 96.8879 203.12 96.3499C201.983 95.7347 201.181 94.5007 200.714 92.6479C199.509 87.8613 199.71 83.4576 201.317 79.4367C202.982 75.3191 205.928 71.5749 210.155 68.2042C214.44 64.7368 219.958 61.614 226.709 58.8358C233.517 55.9608 241.461 53.3728 250.543 51.0717C259.932 48.6925 268.38 47.1268 275.886 46.3746C283.373 45.5451 289.823 45.6355 295.235 46.6458C300.705 47.5594 305.108 49.4412 308.446 52.2912C311.841 55.0446 314.141 58.8145 315.346 63.601C315.813 65.4539 315.691 66.9219 314.982 68.0051C314.252 69.0112 313.254 69.9213 311.985 70.7355C310.774 71.4531 309.409 72.2096 307.89 73.0051C306.351 73.7235 305.006 74.7213 303.854 75.9988C302.779 77.2567 302.023 78.9677 301.585 81.1318C301.128 83.2186 301.328 85.9605 302.183 89.3574L321.312 165.324C322.673 170.728 324.599 175.127 327.091 178.52C329.583 181.912 332.515 184.454 335.888 186.146C339.261 187.837 342.97 188.745 347.013 188.87C351.133 188.976 355.463 188.454 360.004 187.303C364.237 186.231 368.026 184.696 371.371 182.698C374.773 180.604 377.52 178.019 379.611 174.944C381.702 171.868 383.041 168.243 383.627 164.07C384.291 159.878 383.952 155.118 382.611 149.791L363.54 74.0564C362.685 70.6595 361.562 68.1517 360.172 66.5328C358.762 64.8368 357.248 63.7011 355.63 63.1257C354.069 62.4536 352.432 62.1293 350.718 62.1528C349.005 62.1763 347.407 62.1706 345.924 62.1356C344.499 62.0039 343.228 61.669 342.11 61.131C340.973 60.5158 340.171 59.2818 339.704 57.4289C338.499 52.6424 338.623 48.2582 340.076 44.2763C341.51 40.2172 343.725 36.6583 346.721 33.5996C349.698 30.4637 353.176 27.8576 357.156 25.7814C361.117 23.6281 365.059 22.0541 368.984 21.0595C372.448 20.182 376.316 19.7766 380.59 19.8434C384.922 19.8134 389.101 20.4791 393.128 21.8404C397.136 23.1245 400.693 25.2209 403.799 28.1294C406.964 30.9413 409.148 34.7405 410.354 39.527C410.82 41.3798 410.699 42.8479 409.989 43.9311C409.26 44.9371 408.261 45.8472 406.992 46.6615C405.724 47.4757 404.33 48.2806 402.811 49.0761C401.292 49.8717 399.966 50.9467 398.834 52.3014C397.701 53.656 396.916 55.4154 396.478 57.5794C396.041 59.7435 396.269 62.6012 397.164 66.1525L416.436 141.713Z" fill="white"/>
<path d="M591.23 100.483C594.88 100.401 597.797 99.4594 599.98 97.6583C602.163 95.8571 603.78 93.5908 604.83 90.8593C605.881 88.1277 606.528 85.0867 606.771 81.7361C607.093 78.3837 607.22 75.1552 607.151 72.0505C607.105 69.9807 607.022 68.071 606.904 66.3215C606.786 64.5719 606.711 62.9807 606.679 61.5477C606.578 57.0101 606.278 52.477 605.78 47.9483C605.36 43.3382 604.395 39.2182 602.885 35.5883C601.454 31.9566 599.325 29.0176 596.496 26.7712C593.667 24.5249 589.872 23.4551 585.11 23.5618C582.094 23.6294 579.725 24.2002 578.002 25.2742C576.357 26.2668 575.118 27.6486 574.284 29.4195C573.529 31.1886 573.058 33.2302 572.872 35.5441C572.763 37.7766 572.737 40.2064 572.796 42.8335L574.062 99.6728C574.305 99.9063 575.064 100.088 576.337 100.219C577.451 100.353 579.121 100.475 581.347 100.585C583.65 100.613 586.944 100.579 591.23 100.483ZM600.188 0.0467108C615.107 -0.287639 628.121 1.17293 639.23 4.42843C650.416 7.60254 659.723 11.9338 667.149 17.4223C674.654 22.8294 680.272 29.115 684.005 36.2792C687.815 43.362 689.803 50.645 689.97 58.128C690.142 65.8499 688.406 73.495 684.764 81.0634C681.199 88.5505 675.751 95.2832 668.421 101.262C661.17 107.238 652.069 112.141 641.118 115.971C630.166 119.721 617.428 121.759 602.906 122.084C601.636 122.113 599.652 122.157 596.954 122.217C594.254 122.198 591.396 122.223 588.381 122.29C585.443 122.276 582.625 122.3 579.926 122.36C577.226 122.341 575.28 122.305 574.088 122.252L574.49 140.283C574.57 143.865 575.108 146.641 576.104 148.61C577.101 150.578 578.325 152.064 579.777 153.067C581.228 154.07 582.791 154.752 584.467 155.113C586.142 155.473 587.699 155.876 589.139 156.322C590.578 156.768 591.783 157.418 592.755 158.272C593.725 159.047 594.231 160.389 594.274 162.3C594.495 172.251 589.537 179.57 579.399 184.257C569.26 188.865 554.508 191.386 535.145 191.82C525.781 192.03 517.437 191.699 510.113 190.828C502.866 189.875 496.719 188.34 491.669 186.223C486.698 184.025 482.863 181.164 480.164 177.64C477.545 174.115 476.18 169.885 476.071 164.949C476.028 163.038 476.474 161.674 477.409 160.857C478.341 159.96 479.478 159.297 480.818 158.869C482.236 158.359 483.734 157.888 485.312 157.454C486.97 157.019 488.463 156.308 489.79 155.323C491.196 154.256 492.353 152.757 493.263 150.825C494.173 148.893 494.588 146.136 494.508 142.553L492.503 52.5179C492.425 49.0152 491.888 46.3192 490.894 44.43C489.897 42.4612 488.674 41.0151 487.224 40.0919C485.852 39.0872 484.328 38.4045 482.653 38.0438C481.057 37.6814 479.54 37.3171 478.103 36.9511C476.743 36.5037 475.578 35.8926 474.608 35.1179C473.636 34.2636 473.129 32.8811 473.087 30.9706C472.979 26.1145 474.116 21.9076 476.498 18.3498C478.957 14.7106 482.582 11.6824 487.371 9.26532C492.161 6.84824 498.075 5.04311 505.115 3.84994C512.153 2.57716 520.235 1.83851 529.361 1.63398L600.188 0.0467108Z" fill="white"/>
<path d="M896.539 124.151C895.713 128.29 894.444 132.217 892.731 135.933C891.018 139.649 888.884 142.835 886.331 145.489C883.793 148.065 880.819 149.985 877.41 151.249C874.016 152.435 870.178 152.599 865.898 151.739C863.407 151.239 861.407 150.309 859.897 148.95C858.403 147.513 857.181 145.725 856.232 143.585C855.298 141.368 854.474 138.807 853.758 135.902C853.043 132.997 852.226 129.788 851.308 126.274L842.202 123.227L829.183 188.461L869.485 194.606L878.339 175.189C880.55 171.004 882.894 167.577 885.369 164.907C887.861 162.159 890.383 160.067 892.936 158.631C895.583 157.132 898.238 156.204 900.9 155.845C903.562 155.487 906.138 155.557 908.629 156.058C911.508 156.636 914.092 157.683 916.38 159.198C918.684 160.635 920.544 162.47 921.96 164.704C923.454 166.953 924.442 169.506 924.924 172.364C925.422 175.144 925.343 178.173 924.689 181.452C924.05 184.654 923.006 188.058 921.558 191.665C920.203 195.209 918.498 198.684 916.442 202.088C914.48 205.429 912.191 208.583 909.575 211.549C906.959 214.516 904.071 217.022 900.91 219.067C897.75 221.112 894.34 222.579 890.682 223.469C887.117 224.296 883.35 224.31 879.38 223.513L777.808 203.114C768.624 201.269 760.553 199.121 753.595 196.667C746.73 194.152 741.064 191.309 736.597 188.138C732.223 184.904 729.103 181.273 727.236 177.244C725.446 173.23 725.034 168.803 726.001 163.962C726.375 162.088 727.106 160.854 728.196 160.261C729.302 159.59 730.555 159.192 731.956 159.067C733.45 158.88 735.015 158.748 736.65 158.67C738.362 158.608 739.973 158.241 741.483 157.57C743.087 156.837 744.543 155.627 745.851 153.94C747.159 152.254 748.163 149.654 748.865 146.141L766.489 57.8352C767.174 54.3998 767.237 51.6514 766.677 49.5899C766.133 47.4504 765.253 45.7715 764.039 44.5532C762.919 43.2725 761.58 42.2728 760.024 41.5541C758.545 40.8511 757.144 40.1637 755.821 39.492C754.591 38.7578 753.587 37.9065 752.809 36.9381C752.047 35.8917 751.852 34.4316 752.226 32.5577C753.192 27.7169 755.264 23.8289 758.44 20.8937C761.71 17.8961 765.975 15.7888 771.237 14.5718C776.593 13.2923 782.913 12.8563 790.198 13.2638C797.577 13.6088 805.859 14.7036 815.043 16.5481L915.214 36.666C920.896 37.8071 925.526 40.3613 929.106 44.3285C932.686 48.2957 935.362 52.9342 937.136 58.244C939.003 63.4914 940.053 68.9807 940.285 74.7118C940.595 80.4586 940.283 85.6743 939.348 90.359C938.725 93.4821 937.658 96.1912 936.147 98.4865C934.715 100.797 932.932 102.632 930.799 103.99C928.744 105.364 926.416 106.277 923.816 106.729C921.294 107.197 918.671 107.158 915.947 106.611C913.534 106.126 911.238 105.259 909.059 104.009C906.896 102.681 904.942 100.909 903.199 98.6907C901.472 96.3948 900.001 93.6227 898.788 90.3743C897.59 87.0478 896.789 83.1515 896.385 78.6852L895.735 58.2124L856.741 50.3809L845.989 104.254L855.562 104.959C857.742 102.148 859.72 99.541 861.495 97.1364C863.27 94.7319 865.006 92.7256 866.704 91.1175C868.416 89.4313 870.23 88.2526 872.145 87.5815C874.075 86.8323 876.286 86.7078 878.777 87.208C883.057 88.0678 886.529 89.7394 889.19 92.2229C891.867 94.6283 893.883 97.5099 895.236 100.868C896.59 104.225 897.344 107.95 897.499 112.041C897.67 116.055 897.35 120.091 896.539 124.151Z" fill="white"/>
<path d="M1156.95 280.235C1157.59 284.202 1158.61 287.549 1159.99 290.277C1161.4 292.932 1162.92 295.155 1164.55 296.947C1166.26 298.771 1167.91 300.313 1169.52 301.57C1171.24 302.789 1172.7 303.892 1173.91 304.88C1175.19 305.9 1176.06 306.954 1176.53 308.041C1177.1 309.089 1177.05 310.374 1176.36 311.897C1174.03 317.045 1171.15 320.895 1167.73 323.447C1164.34 325.926 1159.93 327.108 1154.49 326.992C1149.05 326.876 1142.35 325.489 1134.4 322.831C1126.45 320.173 1116.8 316.26 1105.46 311.093C1100.4 308.789 1096.15 306.241 1092.7 303.448C1089.33 300.689 1086.57 297.728 1084.43 294.566C1082.29 291.404 1080.6 288.1 1079.37 284.654C1078.24 281.169 1077.45 277.617 1077 273.999C1076.54 270.382 1076.28 266.721 1076.21 263.018C1076.18 259.241 1076.22 255.498 1076.33 251.788L1079.17 216.616L1077.87 216.024C1075.55 214.97 1073.58 214.029 1071.95 213.2C1070.39 212.403 1068.49 211.406 1066.25 210.207L1055.66 233.591C1054.25 236.708 1053.59 239.335 1053.67 241.47C1053.75 243.605 1054.24 245.404 1055.15 246.866C1056.06 248.329 1057.19 249.587 1058.54 250.641C1059.89 251.694 1061.12 252.735 1062.23 253.762C1063.33 254.79 1064.14 255.9 1064.64 257.092C1065.18 258.213 1065.06 259.643 1064.27 261.383C1060.17 270.446 1052.54 274.885 1041.38 274.7C1030.25 274.442 1015.87 270.297 998.23 262.267C989.701 258.383 982.325 254.456 976.102 250.485C969.984 246.475 965.107 242.418 961.472 238.315C957.942 234.171 955.723 229.925 954.814 225.576C953.978 221.26 954.577 216.855 956.611 212.359C957.398 210.619 958.39 209.584 959.585 209.254C960.814 208.851 962.124 208.748 963.517 208.945C965.015 209.103 966.569 209.329 968.178 209.625C969.86 209.954 971.512 209.963 973.135 209.652C974.862 209.302 976.553 208.454 978.208 207.109C979.863 205.764 981.429 203.46 982.905 200.197L1020.01 118.192C1021.46 115.002 1022.14 112.34 1022.06 110.204C1022.01 107.997 1021.53 106.162 1020.63 104.699C1019.82 103.197 1018.75 101.919 1017.39 100.866C1016.11 99.8447 1014.9 98.8569 1013.76 97.9019C1012.73 96.9073 1011.95 95.8501 1011.41 94.73C1010.9 93.5375 1011.04 92.0712 1011.83 90.331C1013.86 85.8356 1016.83 82.5523 1020.73 80.4811C1024.67 78.3373 1029.41 77.3036 1034.95 77.3798C1040.6 77.4165 1047 78.4939 1054.15 80.6122C1061.33 82.658 1069.18 85.6228 1077.71 89.5065L1136.37 116.215C1147.86 121.448 1157.77 126.705 1166.11 131.986C1174.44 137.267 1181.42 142.545 1187.05 147.821C1192.72 153.024 1197.12 158.221 1200.27 163.413C1203.51 168.564 1205.71 173.631 1206.86 178.612C1208.03 183.521 1208.3 188.322 1207.66 193.014C1207.12 197.667 1205.87 202.169 1203.9 206.519C1201.77 211.232 1199.22 215.622 1196.24 219.69C1193.34 223.79 1189.76 227.275 1185.5 230.144C1181.31 233.045 1176.31 235.229 1170.5 236.695C1164.8 238.121 1158.07 238.553 1150.3 237.99L1156.95 280.235ZM1088.53 200.548C1095.04 203.51 1100.79 203.596 1105.8 200.806C1110.82 198.016 1115.03 192.851 1118.44 185.31L1119.92 182.047C1122.08 177.262 1124.12 172.463 1126.04 167.652C1127.99 162.768 1129.15 158.18 1129.52 153.89C1130 149.56 1129.42 145.626 1127.8 142.088C1126.21 138.478 1122.92 135.537 1117.93 133.266C1114.89 131.884 1112.21 131.272 1109.87 131.432C1107.6 131.624 1105.61 132.376 1103.88 133.689C1102.18 134.928 1100.68 136.606 1099.38 138.722C1098.1 140.766 1096.91 143.02 1095.79 145.485L1074.43 192.687C1074.41 192.938 1074.85 193.402 1075.77 194.08C1076.57 194.62 1077.91 195.407 1079.8 196.441C1081.72 197.402 1084.63 198.771 1088.53 200.548Z" fill="white"/>
</svg>
