<svg width="288" height="2484" viewBox="0 0 288 2484" fill="none" xmlns="http://www.w3.org/2000/svg">
<path d="M186.027 166.189C186.027 170.454 186.596 173.771 187.733 176.14C188.871 178.51 190.293 180.31 192 181.542C193.707 182.774 195.556 183.627 197.547 184.101C199.538 184.575 201.387 185.096 203.093 185.665C204.8 186.234 206.222 187.039 207.36 188.082C208.498 189.03 209.067 190.641 209.067 192.915C209.067 204.762 202.951 213.34 190.72 218.647C178.489 223.86 160.806 226.466 137.671 226.466C126.483 226.466 116.527 225.85 107.804 224.618C99.1763 223.291 91.8756 221.301 85.9022 218.647C80.0237 215.899 75.52 212.392 72.3911 208.127C69.357 203.862 67.84 198.792 67.84 192.915C67.84 190.641 68.4089 189.03 69.5467 188.082C70.6844 187.039 72.0593 186.281 73.6711 185.807C75.3778 185.239 77.1793 184.717 79.0756 184.244C81.0667 183.77 82.8681 182.964 84.48 181.827C86.1867 180.595 87.6089 178.841 88.7467 176.567C89.8844 174.292 90.4533 171.022 90.4533 166.757V30.5651L74.5244 31.1337L68.9778 53.8799C67.4607 58.9977 65.6118 63.31 63.4311 66.8167C61.2504 70.3234 58.88 73.214 56.32 75.4887C53.76 77.6685 51.0578 79.2797 48.2133 80.3222C45.3689 81.27 42.477 81.7438 39.5378 81.7438C36.2193 81.7438 33.0904 81.1752 30.1511 80.0379C27.3067 78.9006 24.7941 77.2894 22.6133 75.2043C20.5274 73.1193 18.8681 70.5603 17.6356 67.5275C16.4978 64.4947 15.9289 61.0828 15.9289 57.2918C15.9289 51.6052 16.7348 45.4448 18.3467 38.8106C20.0533 32.0815 22.5659 25.8737 25.8844 20.1872C29.2978 14.4059 33.5644 9.61971 38.6844 5.82869C43.8044 1.9429 49.8252 0 56.7467 0H219.876C226.797 0 232.77 1.89551 237.796 5.68653C242.916 9.47755 247.135 14.2637 250.453 20.045C253.867 25.7315 256.379 31.8919 257.991 38.5262C259.698 45.1605 260.551 51.3209 260.551 57.0074C260.551 60.7985 259.935 64.2104 258.702 67.2432C257.564 70.276 255.953 72.8349 253.867 74.92C251.781 77.0051 249.268 78.6162 246.329 79.7536C243.484 80.8909 240.403 81.4595 237.084 81.4595C234.145 81.4595 231.206 80.9856 228.267 80.0379C225.327 79.0901 222.53 77.5263 219.876 75.3465C217.221 73.0719 214.803 70.1812 212.622 66.6745C210.536 63.0731 208.877 58.666 207.644 53.4534L202.098 30.8494L186.027 30.2808V166.189Z" fill="white"/>
<path d="M251.307 449.802C253.961 453.783 256.711 456.91 259.556 459.185C262.4 461.365 265.15 463.023 267.804 464.161C270.554 465.298 273.114 466.151 275.484 466.72C277.95 467.193 280.083 467.667 281.884 468.141C283.781 468.615 285.25 469.326 286.293 470.274C287.431 471.127 288 472.548 288 474.539C288 481.268 286.767 486.859 284.302 491.314C281.837 495.673 277.618 499.133 271.644 501.692C265.671 504.251 257.707 506.051 247.751 507.094C237.796 508.136 225.375 508.658 210.489 508.658C203.852 508.658 197.973 507.994 192.853 506.667C187.828 505.341 183.372 503.492 179.484 501.123C175.597 498.754 172.136 496.005 169.102 492.878C166.163 489.655 163.556 486.196 161.28 482.5C159.004 478.803 156.919 474.965 155.022 470.984C153.126 466.909 151.324 462.834 149.618 458.758L135.396 419.237H133.689C130.655 419.237 128.047 419.19 125.867 419.095C123.781 419 121.221 418.858 118.187 418.668V449.234C118.187 453.309 118.756 456.484 119.893 458.758C121.031 461.033 122.453 462.739 124.16 463.876C125.867 465.014 127.716 465.819 129.707 466.293C131.698 466.767 133.547 467.288 135.253 467.857C136.96 468.426 138.382 469.231 139.52 470.274C140.658 471.221 141.227 472.833 141.227 475.107C141.227 486.954 135.111 495.531 122.88 500.839C110.649 506.051 92.9659 508.658 69.8311 508.658C58.643 508.658 48.6874 508.042 39.9644 506.81C31.3363 505.483 24.0356 503.492 18.0622 500.839C12.1837 498.09 7.68 494.584 4.55111 490.319C1.51704 486.054 0 480.983 0 475.107C0 472.833 0.568889 471.221 1.70667 470.274C2.84444 469.231 4.21926 468.473 5.83111 467.999C7.53778 467.43 9.33926 466.909 11.2356 466.435C13.2267 465.961 15.0281 465.156 16.64 464.018C18.3467 462.786 19.7689 461.033 20.9067 458.758C22.0444 456.484 22.6133 453.214 22.6133 448.949V341.758C22.6133 337.588 22.0444 334.366 20.9067 332.091C19.7689 329.722 18.3467 327.968 16.64 326.831C15.0281 325.599 13.2267 324.746 11.2356 324.272C9.33926 323.798 7.53778 323.324 5.83111 322.85C4.21926 322.282 2.84444 321.524 1.70667 320.576C0.568889 319.533 0 317.875 0 315.6C0 309.724 1.61185 304.701 4.83556 300.531C8.05926 296.266 12.7052 292.807 18.7733 290.153C24.9363 287.404 32.4267 285.414 41.2444 284.182C50.0622 282.855 60.0652 282.192 71.2533 282.192H148.196C163.271 282.192 176.64 282.997 188.302 284.609C199.964 286.22 210.157 288.494 218.88 291.432C227.603 294.276 234.951 297.735 240.924 301.81C246.993 305.791 251.876 310.198 255.573 315.031C259.271 319.77 261.926 324.841 263.538 330.243C265.244 335.55 266.098 341.047 266.098 346.734C266.098 352.894 265.481 358.912 264.249 364.789C263.111 370.665 260.93 376.209 257.707 381.422C254.578 386.634 250.216 391.468 244.622 395.922C239.123 400.282 232.012 404.073 223.289 407.295L251.307 449.802ZM137.671 397.202C146.204 397.202 152.51 394.453 156.587 388.956C160.664 383.459 162.702 375.783 162.702 365.926V361.661C162.702 355.406 162.56 349.198 162.276 343.038C161.991 336.782 160.996 331.238 159.289 326.405C157.677 321.476 155.117 317.496 151.609 314.463C148.101 311.335 143.076 309.771 136.533 309.771C132.551 309.771 129.327 310.435 126.862 311.762C124.492 313.089 122.69 314.889 121.458 317.164C120.225 319.344 119.419 321.903 119.04 324.841C118.661 327.684 118.471 330.717 118.471 333.939V395.638C118.566 395.922 119.277 396.207 120.604 396.491C121.742 396.681 123.591 396.87 126.151 397.06C128.711 397.154 132.551 397.202 137.671 397.202Z" fill="white"/>
<path d="M136.818 790.849C125.535 790.849 115.532 790.233 106.809 789.001C98.0859 787.675 90.7378 785.684 84.7644 783.031C78.7911 780.282 74.24 776.775 71.1111 772.51C68.077 768.246 66.56 763.175 66.56 757.299C66.56 755.024 67.1289 753.413 68.2667 752.465C69.4044 751.423 70.8267 750.665 72.5333 750.191C74.24 749.622 76.0889 749.101 78.08 748.627C80.0711 748.153 81.92 747.348 83.6267 746.21C85.3333 744.978 86.7556 743.225 87.8933 740.95C89.0311 738.676 89.6 735.406 89.6 731.141V679.962L49.6356 624.661C47.0756 621.059 44.4207 618.216 41.6711 616.131C38.9215 614.046 36.2667 612.387 33.7067 611.155C31.2415 609.923 28.8711 608.975 26.5956 608.312C24.4148 607.554 22.4711 606.796 20.7644 606.037C19.0578 605.279 17.7304 604.284 16.7822 603.052C15.8341 601.82 15.36 600.066 15.36 597.792C15.36 586.04 21.4281 577.557 33.5644 572.345C45.7956 567.037 63.4785 564.384 86.6133 564.384C97.8015 564.384 107.757 565.047 116.48 566.374C125.203 567.606 132.504 569.596 138.382 572.345C144.356 574.998 148.859 578.458 151.893 582.723C155.022 586.893 156.587 591.916 156.587 597.792C156.587 600.446 155.733 602.388 154.027 603.621C152.32 604.853 150.424 605.895 148.338 606.748C146.347 607.601 144.498 608.501 142.791 609.449C141.084 610.302 140.231 611.724 140.231 613.714C140.231 614.851 140.61 616.273 141.369 617.979C142.127 619.59 143.407 621.581 145.209 623.95L160.284 648.118C162.56 650.771 164.693 652.098 166.684 652.098C168.107 652.098 169.434 651.577 170.667 650.534C171.899 649.492 173.037 648.212 174.08 646.696L190.293 623.95C191.905 621.675 192.996 619.732 193.564 618.121C194.133 616.415 194.418 614.946 194.418 613.714C194.418 612.198 193.991 611.013 193.138 610.16C192.284 609.307 191.194 608.596 189.867 608.028C188.634 607.459 187.259 606.938 185.742 606.464C184.32 605.99 182.945 605.421 181.618 604.758C180.385 604.094 179.342 603.241 178.489 602.199C177.636 601.062 177.209 599.593 177.209 597.792C177.209 593.243 178.11 588.978 179.911 584.997C181.713 580.922 184.367 577.368 187.876 574.335C191.479 571.302 195.887 568.885 201.102 567.085C206.412 565.284 212.527 564.384 219.449 564.384C226.465 564.384 232.628 565.284 237.938 567.085C243.247 568.885 247.656 571.302 251.164 574.335C254.767 577.368 257.47 580.922 259.271 584.997C261.073 588.978 261.973 593.243 261.973 597.792C261.973 600.066 261.404 601.82 260.267 603.052C259.129 604.189 257.564 605.137 255.573 605.895C253.582 606.559 251.307 607.222 248.747 607.885C246.187 608.549 243.484 609.497 240.64 610.729C237.89 611.961 235.046 613.667 232.107 615.847C229.167 618.026 226.418 620.964 223.858 624.661L185.173 679.962V730.572C185.173 734.837 185.742 738.154 186.88 740.524C188.018 742.893 189.44 744.694 191.147 745.926C192.853 747.158 194.655 748.011 196.551 748.485C198.542 748.959 200.391 749.48 202.098 750.049C203.804 750.617 205.227 751.423 206.364 752.465C207.502 753.413 208.071 755.024 208.071 757.299C208.071 763.175 206.507 768.246 203.378 772.51C200.344 776.775 195.793 780.282 189.724 783.031C183.751 785.684 176.308 787.675 167.396 789.001C158.578 790.233 148.385 790.849 136.818 790.849Z" fill="white"/>
<path d="M88.7467 1264.11H133.262L111.36 1181.37L88.7467 1264.11ZM52.0533 1355.23C45.037 1355.23 38.8741 1354.33 33.5644 1352.53C28.2548 1350.73 23.7985 1348.31 20.1956 1345.28C16.6874 1342.15 14.0326 1338.6 12.2311 1334.62C10.4296 1330.54 9.52889 1326.23 9.52889 1321.68C9.52889 1319.41 10.0504 1317.8 11.0933 1316.85C12.1363 1315.81 13.5111 1315 15.2178 1314.43C16.9244 1313.86 18.8207 1313.34 20.9067 1312.87C23.0874 1312.39 25.2681 1311.54 27.4489 1310.31C29.6296 1309.08 31.7156 1307.32 33.7067 1305.05C35.6978 1302.68 37.4044 1299.32 38.8267 1294.96L73.8133 1188.33C74.477 1186.34 74.9511 1184.59 75.2356 1183.07C75.6148 1181.56 75.8044 1180.23 75.8044 1179.09C75.8044 1176.15 74.9985 1174.16 73.3867 1173.12C71.7748 1172.08 69.9733 1171.27 67.9822 1170.71C66.0859 1170.14 64.3318 1169.47 62.72 1168.71C61.1081 1167.86 60.3022 1166.2 60.3022 1163.74C60.3022 1163.08 60.3496 1162.55 60.4444 1162.18C61.3926 1155.64 64 1150.23 68.2667 1145.97C72.5333 1141.61 78.1748 1138.2 85.1911 1135.73C92.3022 1133.17 100.646 1131.37 110.222 1130.33C119.799 1129.29 130.37 1128.77 141.938 1128.77C151.704 1128.77 161.043 1129.15 169.956 1129.9C178.963 1130.57 187.07 1132.08 194.276 1134.45C201.481 1136.82 207.502 1140.19 212.338 1144.55C217.173 1148.91 220.35 1154.78 221.867 1162.18C222.056 1163.12 222.151 1163.79 222.151 1164.17C222.151 1165.78 221.677 1167.01 220.729 1167.86C219.876 1168.62 218.785 1169.24 217.458 1169.71C216.13 1170.18 214.708 1170.61 213.191 1170.99C211.674 1171.27 210.252 1171.75 208.924 1172.41C207.597 1173.07 206.459 1174.07 205.511 1175.4C204.658 1176.63 204.231 1178.38 204.231 1180.66C204.231 1182.65 204.658 1185.21 205.511 1188.33L236.942 1294.96C238.175 1299.22 239.739 1302.54 241.636 1304.91C243.532 1307.28 245.523 1309.08 247.609 1310.31C249.79 1311.54 251.923 1312.39 254.009 1312.87C256.19 1313.34 258.133 1313.86 259.84 1314.43C261.547 1315 262.921 1315.81 263.964 1316.85C265.007 1317.8 265.529 1319.41 265.529 1321.68C265.529 1333.53 259.413 1342.11 247.182 1347.41C234.951 1352.63 217.268 1355.23 194.133 1355.23C182.945 1355.23 172.99 1354.62 164.267 1353.38C155.639 1352.06 148.338 1350.07 142.364 1347.41C136.391 1344.67 131.84 1341.16 128.711 1336.89C125.677 1332.63 124.16 1327.56 124.16 1321.68C124.16 1319.69 124.587 1318.22 125.44 1317.28C126.388 1316.23 127.526 1315.47 128.853 1315C130.181 1314.43 131.65 1313.96 133.262 1313.58C134.874 1313.2 136.344 1312.68 137.671 1312.02C138.999 1311.26 140.089 1310.21 140.942 1308.89C141.89 1307.47 142.364 1305.48 142.364 1302.92C142.364 1300.74 142.033 1298.27 141.369 1295.52L139.093 1285.72H81.3511L77.9378 1295.52C76.7052 1299.13 76.0889 1302.06 76.0889 1304.34C76.0889 1306.52 76.5156 1308.22 77.3689 1309.46C78.317 1310.59 79.4548 1311.49 80.7822 1312.16C82.1096 1312.73 83.5793 1313.2 85.1911 1313.58C86.803 1313.96 88.2726 1314.43 89.6 1315C90.9274 1315.47 92.0178 1316.23 92.8711 1317.28C93.8193 1318.32 94.2933 1319.79 94.2933 1321.68C94.2933 1326.23 93.3926 1330.54 91.5911 1334.62C89.7896 1338.6 87.0874 1342.15 83.4844 1345.28C79.9763 1348.31 75.5674 1350.73 70.2578 1352.53C65.043 1354.33 58.9748 1355.23 52.0533 1355.23Z" fill="white"/>
<path d="M244.907 1577.72C244.907 1584.63 243.721 1590.98 241.351 1596.77C238.981 1602.55 235.662 1607.81 231.396 1612.55C227.224 1617.19 222.199 1621.31 216.32 1624.91C210.441 1628.42 203.994 1631.36 196.978 1633.73C190.056 1636.1 182.661 1637.9 174.791 1639.13C166.921 1640.36 158.91 1640.98 150.756 1640.98C140.705 1640.98 130.513 1640.03 120.178 1638.14C109.938 1636.24 100.077 1633.35 90.5956 1629.46C81.2089 1625.48 72.3911 1620.51 64.1422 1614.54C55.8933 1608.47 48.6874 1601.32 42.5244 1593.07C36.4563 1584.82 31.6681 1575.44 28.16 1564.92C24.6519 1554.4 22.8978 1542.65 22.8978 1529.67C22.8978 1515.16 24.6519 1502.09 28.16 1490.43C31.6681 1478.68 36.4563 1468.3 42.5244 1459.29C48.5926 1450.2 55.7511 1442.38 64 1435.84C72.2489 1429.2 81.0667 1423.8 90.4533 1419.63C99.84 1415.37 109.606 1412.24 119.751 1410.25C129.896 1408.16 139.947 1407.12 149.902 1407.12C161.849 1407.12 173.274 1408.54 184.178 1411.39C195.176 1414.13 204.847 1418.16 213.191 1423.47C221.63 1428.68 228.314 1435.13 233.244 1442.8C238.27 1450.39 240.782 1458.96 240.782 1468.53C240.782 1472.33 240.166 1475.74 238.933 1478.77C237.796 1481.8 236.136 1484.36 233.956 1486.45C231.87 1488.53 229.357 1490.14 226.418 1491.28C223.573 1492.42 220.492 1492.99 217.173 1492.99C214.234 1492.99 211.295 1492.51 208.356 1491.57C205.416 1490.62 202.619 1489.05 199.964 1486.87C197.31 1484.6 194.939 1481.71 192.853 1478.2C190.767 1474.6 189.108 1470.24 187.876 1465.12C187.022 1461.43 185.505 1458.16 183.324 1455.31C181.239 1452.47 178.821 1450.1 176.071 1448.21C173.416 1446.22 170.667 1444.75 167.822 1443.8C164.978 1442.85 162.418 1442.38 160.142 1442.38C156.634 1442.38 152.841 1443.47 148.764 1445.65C144.687 1447.83 140.895 1451.19 137.387 1455.74C133.973 1460.19 131.129 1465.88 128.853 1472.8C126.578 1479.72 125.44 1487.92 125.44 1497.39C125.44 1509.9 126.056 1520.95 127.289 1530.52C128.616 1540 130.323 1548.19 132.409 1555.11C134.495 1562.03 136.865 1567.81 139.52 1572.46C142.27 1577.01 145.067 1580.65 147.911 1583.4C150.85 1586.06 153.742 1587.95 156.587 1589.09C159.431 1590.23 162.039 1590.8 164.409 1590.8C167.348 1590.8 169.719 1590.13 171.52 1588.8C173.416 1587.48 174.364 1585.91 174.364 1584.11C174.364 1578.62 173.701 1574.35 172.373 1571.32C171.141 1568.29 169.576 1565.96 167.68 1564.35C165.784 1562.65 163.698 1561.46 161.422 1560.8C159.147 1560.04 157.061 1559.23 155.164 1558.38C153.268 1557.43 151.656 1556.15 150.329 1554.54C149.096 1552.93 148.48 1550.47 148.48 1547.15C148.48 1539.76 149.997 1533.84 153.031 1529.38C156.16 1524.93 160.237 1521.51 165.262 1519.14C170.287 1516.78 176.024 1515.26 182.471 1514.6C188.919 1513.84 195.556 1513.46 202.382 1513.46C213.476 1513.46 222.625 1514.03 229.831 1515.16C237.037 1516.21 242.726 1517.72 246.898 1519.71C251.164 1521.61 254.104 1523.88 255.716 1526.54C257.422 1529.19 258.276 1532.08 258.276 1535.21C258.276 1539.85 257.944 1543.55 257.28 1546.3C256.616 1548.95 255.763 1551.13 254.72 1552.84C253.772 1554.54 252.729 1556.01 251.591 1557.24C250.453 1558.38 249.363 1559.76 248.32 1561.37C247.372 1562.88 246.566 1564.92 245.902 1567.48C245.239 1569.94 244.907 1573.36 244.907 1577.72Z" fill="white"/>
<path d="M88.7467 1828.49H133.262L111.36 1745.75L88.7467 1828.49ZM52.0533 1919.62C45.037 1919.62 38.8741 1918.72 33.5644 1916.92C28.2548 1915.11 23.7985 1912.7 20.1956 1909.67C16.6874 1906.54 14.0326 1902.98 12.2311 1899C10.4296 1894.93 9.52889 1890.62 9.52889 1886.07C9.52889 1883.79 10.0504 1882.18 11.0933 1881.23C12.1363 1880.19 13.5111 1879.38 15.2178 1878.82C16.9244 1878.25 18.8207 1877.73 20.9067 1877.25C23.0874 1876.78 25.2681 1875.93 27.4489 1874.69C29.6296 1873.46 31.7156 1871.71 33.7067 1869.43C35.6978 1867.06 37.4044 1863.7 38.8267 1859.34L73.8133 1752.72C74.477 1750.73 74.9511 1748.97 75.2356 1747.46C75.6148 1745.94 75.8044 1744.61 75.8044 1743.48C75.8044 1740.54 74.9985 1738.55 73.3867 1737.51C71.7748 1736.46 69.9733 1735.66 67.9822 1735.09C66.0859 1734.52 64.3318 1733.86 62.72 1733.1C61.1081 1732.25 60.3022 1730.59 60.3022 1728.12C60.3022 1727.46 60.3496 1726.94 60.4444 1726.56C61.3926 1720.02 64 1714.62 68.2667 1710.35C72.5333 1705.99 78.1748 1702.58 85.1911 1700.12C92.3022 1697.56 100.646 1695.76 110.222 1694.71C119.799 1693.67 130.37 1693.15 141.938 1693.15C151.704 1693.15 161.043 1693.53 169.956 1694.29C178.963 1694.95 187.07 1696.47 194.276 1698.84C201.481 1701.21 207.502 1704.57 212.338 1708.93C217.173 1713.29 220.35 1719.17 221.867 1726.56C222.056 1727.51 222.151 1728.17 222.151 1728.55C222.151 1730.16 221.677 1731.39 220.729 1732.25C219.876 1733 218.785 1733.62 217.458 1734.09C216.13 1734.57 214.708 1734.99 213.191 1735.37C211.674 1735.66 210.252 1736.13 208.924 1736.79C207.597 1737.46 206.459 1738.45 205.511 1739.78C204.658 1741.01 204.231 1742.77 204.231 1745.04C204.231 1747.03 204.658 1749.59 205.511 1752.72L236.942 1859.34C238.175 1863.6 239.739 1866.92 241.636 1869.29C243.532 1871.66 245.523 1873.46 247.609 1874.69C249.79 1875.93 251.923 1876.78 254.009 1877.25C256.19 1877.73 258.133 1878.25 259.84 1878.82C261.547 1879.38 262.921 1880.19 263.964 1881.23C265.007 1882.18 265.529 1883.79 265.529 1886.07C265.529 1897.91 259.413 1906.49 247.182 1911.8C234.951 1917.01 217.268 1919.62 194.133 1919.62C182.945 1919.62 172.99 1919 164.267 1917.77C155.639 1916.44 148.338 1914.45 142.364 1911.8C136.391 1909.05 131.84 1905.54 128.711 1901.28C125.677 1897.01 124.16 1891.94 124.16 1886.07C124.16 1884.08 124.587 1882.61 125.44 1881.66C126.388 1880.62 127.526 1879.86 128.853 1879.38C130.181 1878.82 131.65 1878.34 133.262 1877.96C134.874 1877.58 136.344 1877.06 137.671 1876.4C138.999 1875.64 140.089 1874.6 140.942 1873.27C141.89 1871.85 142.364 1869.86 142.364 1867.3C142.364 1865.12 142.033 1862.66 141.369 1859.91L139.093 1850.1H81.3511L77.9378 1859.91C76.7052 1863.51 76.0889 1866.45 76.0889 1868.72C76.0889 1870.9 76.5156 1872.61 77.3689 1873.84C78.317 1874.98 79.4548 1875.88 80.7822 1876.54C82.1096 1877.11 83.5793 1877.58 85.1911 1877.96C86.803 1878.34 88.2726 1878.82 89.6 1879.38C90.9274 1879.86 92.0178 1880.62 92.8711 1881.66C93.8193 1882.7 94.2933 1884.17 94.2933 1886.07C94.2933 1890.62 93.3926 1894.93 91.5911 1899C89.7896 1902.98 87.0874 1906.54 83.4844 1909.67C79.9763 1912.7 75.5674 1915.11 70.2578 1916.92C65.043 1918.72 58.9748 1919.62 52.0533 1919.62Z" fill="white"/>
<path d="M186.027 2141.53C186.027 2145.8 186.596 2149.11 187.733 2151.48C188.871 2153.85 190.293 2155.65 192 2156.88C193.707 2158.12 195.556 2158.97 197.547 2159.44C199.538 2159.92 201.387 2160.44 203.093 2161.01C204.8 2161.58 206.222 2162.38 207.36 2163.42C208.498 2164.37 209.067 2165.98 209.067 2168.26C209.067 2180.1 202.951 2188.68 190.72 2193.99C178.489 2199.2 160.806 2201.81 137.671 2201.81C126.483 2201.81 116.527 2201.19 107.804 2199.96C99.1763 2198.63 91.8756 2196.64 85.9022 2193.99C80.0237 2191.24 75.52 2187.73 72.3911 2183.47C69.357 2179.2 67.84 2174.13 67.84 2168.26C67.84 2165.98 68.4089 2164.37 69.5467 2163.42C70.6844 2162.38 72.0593 2161.62 73.6711 2161.15C75.3778 2160.58 77.1793 2160.06 79.0756 2159.59C81.0667 2159.11 82.8681 2158.31 84.48 2157.17C86.1867 2155.94 87.6089 2154.18 88.7467 2151.91C89.8844 2149.63 90.4533 2146.36 90.4533 2142.1V2034.91C90.4533 2030.74 89.8844 2027.52 88.7467 2025.24C87.6089 2022.87 86.1867 2021.12 84.48 2019.98C82.8681 2018.75 81.0667 2017.9 79.0756 2017.42C77.1793 2016.95 75.3778 2016.47 73.6711 2016C72.0593 2015.43 70.6844 2014.67 69.5467 2013.73C68.4089 2012.68 67.84 2011.03 67.84 2008.75C67.84 2002.87 69.357 1997.85 72.3911 1993.68C75.52 1989.42 80.0237 1985.96 85.9022 1983.3C91.8756 1980.55 99.1763 1978.56 107.804 1977.33C116.527 1976.01 126.483 1975.34 137.671 1975.34C149.239 1975.34 159.479 1976.01 168.391 1977.33C177.304 1978.56 184.747 1980.55 190.72 1983.3C196.788 1985.96 201.339 1989.42 204.373 1993.68C207.502 1997.85 209.067 2002.87 209.067 2008.75C209.067 2011.03 208.498 2012.68 207.36 2013.73C206.222 2014.67 204.8 2015.43 203.093 2016C201.481 2016.47 199.68 2016.95 197.689 2017.42C195.698 2017.9 193.849 2018.75 192.142 2019.98C190.53 2021.12 189.156 2022.87 188.018 2025.24C186.88 2027.52 186.311 2030.74 186.311 2034.91L186.027 2141.53Z" fill="white"/>
<path d="M85.1911 2373.68C84.5274 2373.21 84.0059 2372.97 83.6267 2372.97C82.7733 2372.97 82.3467 2373.44 82.3467 2374.39C82.3467 2374.68 82.3941 2374.91 82.4889 2375.1V2423.72C82.4889 2427.99 83.0578 2431.3 84.1956 2433.67C85.3333 2436.04 86.7556 2437.84 88.4622 2439.08C90.1689 2440.31 92.0178 2441.16 94.0089 2441.64C96 2442.11 97.8489 2442.63 99.5556 2443.2C101.262 2443.77 102.684 2444.57 103.822 2445.62C104.96 2446.56 105.529 2448.17 105.529 2450.45C105.529 2456.33 104.201 2461.4 101.547 2465.66C98.9867 2469.93 95.6681 2473.43 91.5911 2476.18C87.5141 2478.83 82.9156 2480.83 77.7956 2482.15C72.7704 2483.38 67.84 2484 63.0044 2484C57.3156 2484 51.7689 2483.38 46.3644 2482.15C41.0548 2480.83 36.3141 2478.83 32.1422 2476.18C28.0652 2473.43 24.7467 2469.93 22.1867 2465.66C19.7215 2461.4 18.4889 2456.33 18.4889 2450.45C18.4889 2448.17 19.0578 2446.56 20.1956 2445.62C21.3333 2444.57 22.7081 2443.82 24.32 2443.34C26.0267 2442.77 27.8281 2442.25 29.7244 2441.78C31.7156 2441.3 33.517 2440.5 35.1289 2439.36C36.8356 2438.13 38.2578 2436.38 39.3956 2434.1C40.5333 2431.83 41.1022 2428.56 41.1022 2424.29V2317.1C41.1022 2312.93 40.5333 2309.71 39.3956 2307.43C38.2578 2305.06 36.8356 2303.31 35.1289 2302.17C33.517 2300.94 31.7156 2300.09 29.7244 2299.61C27.8281 2299.14 26.0267 2298.67 24.32 2298.19C22.7081 2297.62 21.3333 2296.87 20.1956 2295.92C19.0578 2294.88 18.4889 2293.22 18.4889 2290.94C18.4889 2285.07 19.6741 2280.04 22.0444 2275.87C24.4148 2271.61 27.6385 2268.15 31.7156 2265.5C35.8874 2262.75 40.7704 2260.76 46.3644 2259.52C51.9585 2258.2 57.9793 2257.53 64.4267 2257.53C69.357 2257.53 73.5763 2257.96 77.0844 2258.81C80.6874 2259.57 84.0533 2260.9 87.1822 2262.79C90.4059 2264.59 93.7718 2267.06 97.28 2270.19C100.788 2273.31 105.007 2277.15 109.938 2281.7L191.431 2357.62C191.621 2357.81 191.858 2358 192.142 2358.19C192.521 2358.38 192.948 2358.47 193.422 2358.47C193.991 2358.47 194.513 2358.23 194.987 2357.76C195.556 2357.19 195.84 2356.1 195.84 2354.49V2317.81C195.84 2313.45 195.271 2310.09 194.133 2307.72C192.996 2305.35 191.573 2303.55 189.867 2302.32C188.16 2301.08 186.311 2300.23 184.32 2299.76C182.329 2299.28 180.48 2298.76 178.773 2298.19C177.067 2297.62 175.644 2296.87 174.507 2295.92C173.369 2294.88 172.8 2293.22 172.8 2290.94C172.8 2285.07 174.08 2280.04 176.64 2275.87C179.295 2271.61 182.661 2268.15 186.738 2265.5C190.815 2262.75 195.366 2260.76 200.391 2259.52C205.511 2258.2 210.489 2257.53 215.324 2257.53C221.013 2257.53 226.513 2258.2 231.822 2259.52C237.227 2260.76 241.967 2262.75 246.044 2265.5C250.216 2268.15 253.535 2271.61 256 2275.87C258.56 2280.04 259.84 2285.07 259.84 2290.94C259.84 2293.22 259.271 2294.88 258.133 2295.92C257.09 2296.87 255.716 2297.62 254.009 2298.19C252.397 2298.67 250.596 2299.14 248.604 2299.61C246.708 2300.09 244.907 2300.94 243.2 2302.17C241.588 2303.31 240.213 2305.06 239.076 2307.43C238.033 2309.71 237.511 2312.93 237.511 2317.1V2453.43C237.511 2459.69 236.99 2464.81 235.947 2468.79C234.904 2472.77 233.387 2475.9 231.396 2478.17C229.499 2480.35 227.176 2481.87 224.427 2482.72C221.772 2483.57 218.833 2484 215.609 2484C213.333 2484 210.963 2483.53 208.498 2482.58C206.033 2481.63 203.425 2480.26 200.676 2478.46C197.926 2476.56 194.892 2474.24 191.573 2471.49C188.255 2468.74 184.604 2465.61 180.622 2462.11L85.1911 2373.68Z" fill="white"/>
</svg>
