<svg width="392" height="2484" viewBox="0 0 392 2484" fill="none" xmlns="http://www.w3.org/2000/svg">
<path d="M179.513 56.7231C177.712 53.406 175.77 50.847 173.685 49.0463C171.695 47.2456 169.706 45.8713 167.716 44.9236C165.726 43.881 163.831 43.1228 162.03 42.649C160.325 42.0803 158.809 41.5117 157.482 40.943C156.156 40.2796 155.066 39.4266 154.213 38.3841C153.455 37.2468 153.076 35.5882 153.076 33.4084C153.076 21.6562 159.14 13.1738 171.269 7.96114C183.492 2.65371 201.211 0 224.426 0C235.607 0 245.509 0.663428 254.132 1.99028C262.849 3.22237 270.146 5.21265 276.02 7.96114C281.99 10.6149 286.491 14.0742 289.523 18.3391C292.65 22.5092 294.213 27.5323 294.213 33.4084C294.213 35.3986 293.739 36.915 292.792 37.9576C291.844 38.9053 290.66 39.6635 289.239 40.2322C287.817 40.8008 286.254 41.2747 284.548 41.6538C282.937 41.9381 281.421 42.412 280 43.0754C278.579 43.7389 277.394 44.6392 276.447 45.7765C275.499 46.9139 275.025 48.5724 275.025 50.7523C275.025 51.8896 275.168 53.169 275.452 54.5907C275.736 56.0123 276.257 57.6709 277.015 59.5664L295.919 110.603C296.772 112.878 297.766 114.868 298.904 116.574C300.135 118.185 301.415 118.991 302.741 118.991C303.783 118.991 304.873 118.28 306.01 116.858C307.242 115.342 308.474 112.783 309.706 109.181L326.193 59.5664C327.33 56.1545 327.898 53.3586 327.898 51.1788C327.898 48.9041 327.377 47.1508 326.335 45.9187C325.387 44.6866 324.108 43.7389 322.497 43.0754C320.981 42.412 319.323 41.9381 317.523 41.6538C315.817 41.2747 314.159 40.8008 312.548 40.2322C311.032 39.6635 309.753 38.9053 308.711 37.9576C307.763 36.915 307.289 35.3986 307.289 33.4084C307.289 28.8591 308.189 24.5942 309.99 20.6137C311.79 16.5383 314.443 12.9842 317.949 9.95142C321.55 6.91861 325.956 4.50183 331.167 2.7011C336.474 0.900367 342.585 0 349.503 0C356.514 0 362.673 0.900367 367.98 2.7011C373.286 4.50183 377.692 6.91861 381.198 9.95142C384.799 12.9842 387.499 16.5383 389.299 20.6137C391.1 24.5942 392 28.8591 392 33.4084C392 35.683 391.431 37.3415 390.294 38.3841C389.157 39.4266 387.641 40.2322 385.746 40.8008C383.946 41.2747 381.861 41.796 379.492 42.3646C377.124 42.8385 374.755 43.6915 372.386 44.9236C370.017 46.1557 367.695 47.9564 365.421 50.3258C363.242 52.6952 361.347 56.0123 359.736 60.2772L321.787 161.213C318.281 170.501 315.154 178.747 312.406 185.949C309.658 193.058 307.052 199.313 304.589 204.715C302.22 210.022 299.898 214.477 297.624 218.078C295.445 221.68 293.124 224.57 290.66 226.75C288.291 229.025 285.685 230.636 282.843 231.584C280 232.626 276.826 233.148 273.32 233.148C268.772 233.148 264.555 231.821 260.67 229.167C256.785 226.513 252.758 222.012 248.589 215.662C244.514 209.312 240.061 200.829 235.228 190.214C230.491 179.505 225.042 166.141 218.883 150.124L197.848 95.9602L173.117 161.071C167.81 175.003 163.31 186.613 159.614 195.901C155.919 205.094 152.365 212.487 148.954 218.078C145.543 223.575 141.942 227.461 138.152 229.736C134.457 232.01 129.909 233.148 124.508 233.148C119.959 233.148 115.932 231.726 112.426 228.883C108.92 226.134 105.225 221.538 101.34 215.093C97.5499 208.648 93.1912 200.118 88.264 189.504C83.3367 178.889 77.2724 165.762 70.0711 150.124L28.4264 60.2772C26.5313 56.2966 24.4941 53.169 22.3147 50.8944C20.2301 48.6198 18.1455 46.8665 16.0609 45.6344C13.9763 44.4023 11.9391 43.5019 9.94924 42.9333C8.05415 42.3646 6.34856 41.7486 4.83249 41.0852C3.41117 40.4217 2.27411 39.5688 1.42132 38.5262C0.473773 37.3889 0 35.683 0 33.4084C0 21.6562 6.0643 13.1738 18.1929 7.96114C30.4162 2.65371 48.088 0 71.2081 0C82.3892 0 92.3384 0.663428 101.056 1.99028C109.773 3.22237 117.069 5.21265 122.944 7.96114C128.914 10.6149 133.415 14.0742 136.447 18.3391C139.574 22.5092 141.137 27.5323 141.137 33.4084C141.137 35.3039 140.616 36.7729 139.574 37.8154C138.626 38.8579 137.442 39.7109 136.02 40.3743C134.599 40.943 132.988 41.4643 131.188 41.9381C129.482 42.3172 127.919 42.8385 126.497 43.5019C125.076 44.0706 123.844 44.9236 122.802 46.0609C121.854 47.1034 121.381 48.5724 121.381 50.4679C121.381 51.6052 121.57 52.9321 121.949 54.4485C122.328 55.9649 122.992 57.6709 123.939 59.5664L147.249 110.603C148.291 112.783 149.333 114.726 150.376 116.432C151.418 118.043 152.602 118.848 153.929 118.848C154.971 118.848 156.061 118.138 157.198 116.716C158.335 115.294 159.567 112.783 160.893 109.181L179.513 56.7231Z" fill="white"/>
<path d="M228.548 405.021H164.447V448.381C164.447 452.645 165.015 455.963 166.152 458.332C167.384 460.701 168.853 462.502 170.558 463.734C172.264 464.966 174.112 465.819 176.102 466.293C178.091 466.767 179.892 467.288 181.503 467.857C183.208 468.426 184.629 469.231 185.766 470.274C186.904 471.221 187.472 472.833 187.472 475.107C187.472 486.954 181.36 495.531 169.137 500.839C156.914 506.051 139.242 508.658 116.122 508.658C104.941 508.658 94.9915 508.042 86.2741 506.81C77.6514 505.483 70.3553 503.492 64.3858 500.839C58.511 498.09 54.0102 494.584 50.8832 490.319C47.8511 486.054 46.335 480.983 46.335 475.107C46.335 472.833 46.9036 471.221 48.0406 470.274C49.1777 469.231 50.5516 468.473 52.1624 467.999C53.868 467.43 55.6684 466.909 57.5634 466.435C59.5533 465.961 61.3536 465.156 62.9645 464.018C64.67 462.786 66.0914 461.033 67.2284 458.758C68.3655 456.484 68.934 453.214 68.934 448.949V341.758C68.934 337.588 68.3655 334.366 67.2284 332.091C66.0914 329.722 64.67 327.968 62.9645 326.831C61.3536 325.599 59.5533 324.746 57.5634 324.272C55.6684 323.798 53.868 323.324 52.1624 322.85C50.5516 322.282 49.1777 321.524 48.0406 320.576C46.9036 319.533 46.335 317.875 46.335 315.6C46.335 309.724 47.8511 304.701 50.8832 300.531C54.0102 296.266 58.511 292.807 64.3858 290.153C70.3553 287.404 77.6514 285.414 86.2741 284.182C94.9915 282.855 104.941 282.192 116.122 282.192C127.682 282.192 137.915 282.855 146.822 284.182C155.729 285.414 163.168 287.404 169.137 290.153C175.201 292.807 179.75 296.266 182.782 300.531C185.909 304.701 187.472 309.724 187.472 315.6C187.472 317.875 186.904 319.533 185.766 320.576C184.629 321.524 183.208 322.282 181.503 322.85C179.892 323.324 178.091 323.798 176.102 324.272C174.112 324.746 172.264 325.599 170.558 326.831C168.948 327.968 167.574 329.722 166.437 332.091C165.299 334.366 164.731 337.588 164.731 341.758V377.583H228.548V341.758C228.548 337.588 227.98 334.366 226.843 332.091C225.706 329.722 224.284 327.968 222.579 326.831C220.968 325.599 219.168 324.746 217.178 324.272C215.188 323.798 213.34 323.324 211.635 322.85C210.024 322.282 208.65 321.524 207.513 320.576C206.376 319.533 205.807 317.875 205.807 315.6C205.807 303.848 211.871 295.366 224 290.153C236.223 284.845 253.942 282.192 277.157 282.192C299.993 282.192 317.475 284.845 329.604 290.153C341.733 295.366 347.797 303.848 347.797 315.6C347.797 317.875 347.181 319.533 345.949 320.576C344.812 321.524 343.343 322.282 341.543 322.85C339.838 323.324 337.942 323.798 335.858 324.272C333.773 324.746 331.831 325.599 330.03 326.831C328.325 327.968 326.856 329.722 325.624 332.091C324.487 334.366 323.919 337.588 323.919 341.758V448.381C323.919 452.645 324.487 455.963 325.624 458.332C326.856 460.701 328.325 462.502 330.03 463.734C331.831 464.966 333.773 465.819 335.858 466.293C337.942 466.767 339.838 467.288 341.543 467.857C343.343 468.426 344.812 469.231 345.949 470.274C347.181 471.221 347.797 472.833 347.797 475.107C347.797 480.983 346.233 486.054 343.107 490.319C340.074 494.584 335.574 498.09 329.604 500.839C323.635 503.492 316.244 505.483 307.431 506.81C298.619 508.042 288.528 508.658 277.157 508.658C265.597 508.658 255.364 508.042 246.457 506.81C237.55 505.483 230.064 503.492 224 500.839C218.03 498.09 213.482 494.584 210.355 490.319C207.323 486.054 205.807 480.983 205.807 475.107C205.807 472.833 206.376 471.221 207.513 470.274C208.65 469.231 210.024 468.426 211.635 467.857C213.34 467.288 215.188 466.767 217.178 466.293C219.168 465.819 220.968 464.966 222.579 463.734C224.284 462.502 225.706 460.749 226.843 458.474C227.98 456.105 228.548 452.74 228.548 448.381V405.021Z" fill="white"/>
<path d="M244.467 730.572C244.467 734.837 245.036 738.154 246.173 740.524C247.31 742.893 248.731 744.694 250.437 745.926C252.142 747.158 253.99 748.011 255.98 748.485C257.97 748.959 259.817 749.48 261.523 750.049C263.228 750.617 264.65 751.423 265.787 752.465C266.924 753.413 267.492 755.024 267.492 757.299C267.492 769.146 261.381 777.723 249.157 783.031C236.934 788.243 219.262 790.849 196.142 790.849C184.961 790.849 175.012 790.233 166.294 789.001C157.672 787.675 150.376 785.684 144.406 783.031C138.531 780.282 134.03 776.775 130.904 772.51C127.871 768.246 126.355 763.175 126.355 757.299C126.355 755.024 126.924 753.413 128.061 752.465C129.198 751.423 130.572 750.665 132.183 750.191C133.888 749.622 135.689 749.101 137.584 748.627C139.574 748.153 141.374 747.348 142.985 746.21C144.69 744.978 146.112 743.225 147.249 740.95C148.386 738.676 148.954 735.406 148.954 731.141V623.95C148.954 619.78 148.386 616.557 147.249 614.283C146.112 611.913 144.69 610.16 142.985 609.023C141.374 607.791 139.574 606.938 137.584 606.464C135.689 605.99 133.888 605.516 132.183 605.042C130.572 604.474 129.198 603.715 128.061 602.768C126.924 601.725 126.355 600.066 126.355 597.792C126.355 591.916 127.871 586.893 130.904 582.723C134.03 578.458 138.531 574.998 144.406 572.345C150.376 569.596 157.672 567.606 166.294 566.374C175.012 565.047 184.961 564.384 196.142 564.384C207.702 564.384 217.936 565.047 226.843 566.374C235.75 567.606 243.188 569.596 249.157 572.345C255.222 574.998 259.77 578.458 262.802 582.723C265.929 586.893 267.492 591.916 267.492 597.792C267.492 600.066 266.924 601.725 265.787 602.768C264.65 603.715 263.228 604.474 261.523 605.042C259.912 605.516 258.112 605.99 256.122 606.464C254.132 606.938 252.284 607.791 250.579 609.023C248.968 610.16 247.594 611.913 246.457 614.283C245.32 616.557 244.751 619.78 244.751 623.95L244.467 730.572Z" fill="white"/>
<path d="M244.467 1012.76C244.467 1017.03 245.036 1020.35 246.173 1022.72C247.31 1025.08 248.731 1026.89 250.437 1028.12C252.142 1029.35 253.99 1030.2 255.98 1030.68C257.97 1031.15 259.817 1031.67 261.523 1032.24C263.228 1032.81 264.65 1033.61 265.787 1034.66C266.924 1035.6 267.492 1037.22 267.492 1039.49C267.492 1051.34 261.381 1059.91 249.157 1065.22C236.934 1070.43 219.262 1073.04 196.142 1073.04C184.961 1073.04 175.012 1072.43 166.294 1071.19C157.672 1069.87 150.376 1067.88 144.406 1065.22C138.531 1062.47 134.03 1058.97 130.904 1054.7C127.871 1050.44 126.355 1045.37 126.355 1039.49C126.355 1037.22 126.924 1035.6 128.061 1034.66C129.198 1033.61 130.572 1032.86 132.183 1032.38C133.888 1031.81 135.689 1031.29 137.584 1030.82C139.574 1030.34 141.374 1029.54 142.985 1028.4C144.69 1027.17 146.112 1025.42 147.249 1023.14C148.386 1020.87 148.954 1017.6 148.954 1013.33V877.14L133.036 877.709L127.492 900.455C125.976 905.573 124.129 909.885 121.949 913.392C119.77 916.899 117.401 919.789 114.843 922.064C112.284 924.244 109.584 925.855 106.741 926.897C103.898 927.845 101.008 928.319 98.0711 928.319C94.7546 928.319 91.6277 927.75 88.6904 926.613C85.8477 925.476 83.3367 923.865 81.1574 921.78C79.0728 919.695 77.4145 917.136 76.1827 914.103C75.0457 911.07 74.4772 907.658 74.4772 903.867C74.4772 898.181 75.2826 892.02 76.8934 885.386C78.599 878.657 81.11 872.449 84.4264 866.762C87.8376 860.981 92.1015 856.195 97.2183 852.404C102.335 848.518 108.352 846.575 115.269 846.575H278.294C285.211 846.575 291.181 848.471 296.203 852.262C301.32 856.053 305.536 860.839 308.853 866.62C312.264 872.307 314.775 878.467 316.386 885.101C318.091 891.736 318.944 897.896 318.944 903.583C318.944 907.374 318.328 910.786 317.096 913.818C315.959 916.851 314.349 919.41 312.264 921.495C310.179 923.58 307.668 925.192 304.731 926.329C301.888 927.466 298.809 928.035 295.492 928.035C292.555 928.035 289.618 927.561 286.68 926.613C283.743 925.665 280.948 924.102 278.294 921.922C275.641 919.647 273.225 916.756 271.046 913.25C268.961 909.648 267.303 905.241 266.071 900.029L260.528 877.425L244.467 876.856V1012.76Z" fill="white"/>
<path d="M269.198 1235.25C269.198 1240.27 268.629 1245.15 267.492 1249.89C266.355 1254.63 264.602 1258.85 262.233 1262.54C259.865 1266.14 256.832 1269.08 253.137 1271.36C249.442 1273.54 244.988 1274.63 239.777 1274.63C236.744 1274.63 234.186 1274.01 232.102 1272.78C230.017 1271.45 228.169 1269.65 226.558 1267.38C224.948 1265.01 223.384 1262.21 221.868 1258.99C220.352 1255.77 218.646 1252.21 216.751 1248.33L205.381 1246.9V1326.09L253.99 1323.81L259.817 1299.08C261.428 1293.68 263.371 1289.13 265.645 1285.43C267.919 1281.64 270.382 1278.61 273.036 1276.33C275.783 1273.96 278.673 1272.26 281.706 1271.21C284.738 1270.17 287.77 1269.65 290.802 1269.65C294.308 1269.65 297.577 1270.27 300.609 1271.5C303.641 1272.64 306.247 1274.34 308.426 1276.62C310.7 1278.89 312.453 1281.64 313.685 1284.86C314.917 1287.99 315.533 1291.54 315.533 1295.52C315.533 1299.41 315.107 1303.63 314.254 1308.18C313.496 1312.63 312.311 1317.09 310.7 1321.54C309.184 1325.9 307.242 1330.12 304.873 1334.19C302.504 1338.27 299.709 1341.87 296.487 1345C293.266 1348.12 289.618 1350.64 285.543 1352.53C281.563 1354.33 277.157 1355.23 272.325 1355.23H148.67C137.489 1355.23 127.54 1354.62 118.822 1353.38C110.2 1352.06 102.904 1350.07 96.934 1347.41C91.0592 1344.67 86.5584 1341.16 83.4315 1336.89C80.3993 1332.63 78.8832 1327.56 78.8832 1321.68C78.8832 1319.41 79.4518 1317.8 80.5888 1316.85C81.7259 1315.81 83.0998 1315.05 84.7107 1314.57C86.4162 1314.01 88.2166 1313.48 90.1117 1313.01C92.1015 1312.54 93.9019 1311.73 95.5127 1310.59C97.2183 1309.36 98.6396 1307.61 99.7766 1305.33C100.914 1303.06 101.482 1299.79 101.482 1295.52V1188.33C101.482 1184.16 100.914 1180.94 99.7766 1178.67C98.6396 1176.3 97.2183 1174.54 95.5127 1173.41C93.9019 1172.17 92.1015 1171.32 90.1117 1170.85C88.2166 1170.37 86.4162 1169.9 84.7107 1169.43C83.0998 1168.86 81.7259 1168.1 80.5888 1167.15C79.4518 1166.11 78.8832 1164.45 78.8832 1162.18C78.8832 1156.3 80.3993 1151.28 83.4315 1147.11C86.5584 1142.84 91.0592 1139.38 96.934 1136.73C102.904 1133.98 110.2 1131.99 118.822 1130.76C127.54 1129.43 137.489 1128.77 148.67 1128.77H270.619C277.536 1128.77 283.553 1130.66 288.67 1134.45C293.787 1138.24 298.003 1143.03 301.32 1148.81C304.731 1154.5 307.242 1160.66 308.853 1167.29C310.558 1173.93 311.411 1180.09 311.411 1185.77C311.411 1189.57 310.795 1192.98 309.563 1196.01C308.426 1199.04 306.768 1201.6 304.589 1203.69C302.504 1205.77 299.993 1207.38 297.056 1208.52C294.213 1209.66 291.134 1210.23 287.817 1210.23C284.88 1210.23 281.99 1209.75 279.147 1208.8C276.305 1207.76 273.604 1206.15 271.046 1203.97C268.487 1201.7 266.118 1198.81 263.939 1195.3C261.76 1191.7 259.912 1187.34 258.396 1182.22L252.853 1158.48H205.381V1223.87L216.751 1222.45C218.646 1218.66 220.352 1215.15 221.868 1211.93C223.384 1208.71 224.948 1205.96 226.558 1203.69C228.169 1201.32 230.017 1199.52 232.102 1198.28C234.186 1196.96 236.744 1196.29 239.777 1196.29C244.988 1196.29 249.442 1197.43 253.137 1199.71C256.832 1201.89 259.865 1204.78 262.233 1208.38C264.602 1211.98 266.355 1216.15 267.492 1220.89C268.629 1225.53 269.198 1230.32 269.198 1235.25Z" fill="white"/>
<path d="M213.056 1586.25C213.056 1590.61 213.577 1594.11 214.619 1596.77C215.756 1599.42 217.13 1601.5 218.741 1603.02C220.447 1604.44 222.294 1605.44 224.284 1606.01C226.274 1606.48 228.122 1606.72 229.827 1606.72C230.017 1606.72 230.254 1606.72 230.538 1606.72C230.822 1606.62 231.391 1606.58 232.244 1606.58C233.191 1606.48 234.518 1606.34 236.223 1606.15C238.024 1605.96 240.487 1605.72 243.614 1605.44L249.442 1580.7C251.052 1575.3 252.995 1570.75 255.269 1567.05C257.543 1563.26 260.007 1560.23 262.66 1557.96C265.408 1555.59 268.25 1553.88 271.188 1552.84C274.22 1551.8 277.252 1551.27 280.284 1551.27C283.885 1551.27 287.201 1551.89 290.233 1553.12C293.266 1554.26 295.871 1555.97 298.051 1558.24C300.23 1560.42 301.936 1563.12 303.168 1566.34C304.399 1569.57 305.015 1573.17 305.015 1577.15C305.015 1581.03 304.636 1585.25 303.878 1589.8C303.12 1594.35 301.936 1598.85 300.325 1603.31C298.714 1607.76 296.724 1612.07 294.355 1616.24C291.986 1620.32 289.191 1623.92 285.97 1627.05C282.843 1630.17 279.242 1632.69 275.168 1634.58C271.188 1636.48 266.782 1637.42 261.949 1637.42H164.731C153.55 1637.42 143.601 1636.81 134.883 1635.58C126.261 1634.25 118.964 1632.26 112.995 1629.61C107.12 1626.86 102.619 1623.35 99.4924 1619.09C96.4602 1614.82 94.9442 1609.75 94.9442 1603.87C94.9442 1601.6 95.5127 1599.99 96.6497 1599.04C97.7868 1598 99.1607 1597.24 100.772 1596.77C102.477 1596.2 104.277 1595.68 106.173 1595.2C108.162 1594.73 109.963 1593.92 111.574 1592.79C113.279 1591.55 114.701 1589.8 115.838 1587.53C116.975 1585.25 117.543 1581.98 117.543 1577.72V1470.53C117.543 1466.36 116.975 1463.13 115.838 1460.86C114.701 1458.49 113.279 1456.74 111.574 1455.6C109.963 1454.37 108.162 1453.51 106.173 1453.04C104.277 1452.57 102.477 1452.09 100.772 1451.62C99.1607 1451.05 97.7868 1450.29 96.6497 1449.34C95.5127 1448.3 94.9442 1446.64 94.9442 1444.37C94.9442 1438.49 96.4602 1433.47 99.4924 1429.3C102.619 1425.03 107.12 1421.57 112.995 1418.92C118.964 1416.17 126.261 1414.18 134.883 1412.95C143.601 1411.62 153.55 1410.96 164.731 1410.96C176.291 1410.96 186.525 1411.62 195.431 1412.95C204.338 1414.18 211.777 1416.17 217.746 1418.92C223.81 1421.57 228.359 1425.03 231.391 1429.3C234.518 1433.47 236.081 1438.49 236.081 1444.37C236.081 1446.64 235.513 1448.3 234.376 1449.34C233.239 1450.29 231.817 1451.05 230.112 1451.62C228.501 1452.09 226.7 1452.57 224.711 1453.04C222.721 1453.51 220.873 1454.37 219.168 1455.6C217.557 1456.74 216.183 1458.49 215.046 1460.86C213.909 1463.13 213.34 1466.36 213.34 1470.53L213.056 1586.25Z" fill="white"/>
<path d="M244.467 1859.34C244.467 1863.6 245.036 1866.92 246.173 1869.29C247.31 1871.66 248.731 1873.46 250.437 1874.69C252.142 1875.93 253.99 1876.78 255.98 1877.25C257.97 1877.73 259.817 1878.25 261.523 1878.82C263.228 1879.38 264.65 1880.19 265.787 1881.23C266.924 1882.18 267.492 1883.79 267.492 1886.07C267.492 1897.91 261.381 1906.49 249.157 1911.8C236.934 1917.01 219.262 1919.62 196.142 1919.62C184.961 1919.62 175.012 1919 166.294 1917.77C157.672 1916.44 150.376 1914.45 144.406 1911.8C138.531 1909.05 134.03 1905.54 130.904 1901.28C127.871 1897.01 126.355 1891.94 126.355 1886.07C126.355 1883.79 126.924 1882.18 128.061 1881.23C129.198 1880.19 130.572 1879.43 132.183 1878.96C133.888 1878.39 135.689 1877.87 137.584 1877.39C139.574 1876.92 141.374 1876.11 142.985 1874.98C144.69 1873.75 146.112 1871.99 147.249 1869.72C148.386 1867.44 148.954 1864.17 148.954 1859.91V1752.72C148.954 1748.55 148.386 1745.32 147.249 1743.05C146.112 1740.68 144.69 1738.93 142.985 1737.79C141.374 1736.56 139.574 1735.7 137.584 1735.23C135.689 1734.76 133.888 1734.28 132.183 1733.81C130.572 1733.24 129.198 1732.48 128.061 1731.53C126.924 1730.49 126.355 1728.83 126.355 1726.56C126.355 1720.68 127.871 1715.66 130.904 1711.49C134.03 1707.22 138.531 1703.77 144.406 1701.11C150.376 1698.36 157.672 1696.37 166.294 1695.14C175.012 1693.81 184.961 1693.15 196.142 1693.15C207.702 1693.15 217.936 1693.81 226.843 1695.14C235.75 1696.37 243.188 1698.36 249.157 1701.11C255.222 1703.77 259.77 1707.22 262.802 1711.49C265.929 1715.66 267.492 1720.68 267.492 1726.56C267.492 1728.83 266.924 1730.49 265.787 1731.53C264.65 1732.48 263.228 1733.24 261.523 1733.81C259.912 1734.28 258.112 1734.76 256.122 1735.23C254.132 1735.7 252.284 1736.56 250.579 1737.79C248.968 1738.93 247.594 1740.68 246.457 1743.05C245.32 1745.32 244.751 1748.55 244.751 1752.72L244.467 1859.34Z" fill="white"/>
<path d="M225.421 2017.28C225.421 2014.63 223.005 2012.21 218.173 2010.03C213.435 2007.85 206.139 2006.76 196.284 2006.76C189.462 2006.76 184.061 2007.23 180.081 2008.18C176.102 2009.13 173.069 2010.41 170.985 2012.02C168.995 2013.54 167.716 2015.29 167.147 2017.28C166.579 2019.18 166.294 2021.12 166.294 2023.11C166.294 2027.18 168.19 2030.79 171.98 2033.91C175.865 2036.95 180.934 2039.84 187.188 2042.59C193.536 2045.33 200.738 2048.08 208.792 2050.83C216.846 2053.58 225.09 2056.66 233.523 2060.07C241.956 2063.39 250.2 2067.23 258.254 2071.59C266.308 2075.95 273.462 2081.06 279.716 2086.94C286.064 2092.82 291.134 2099.69 294.924 2107.55C298.809 2115.42 300.751 2124.52 300.751 2134.85C300.751 2148.12 298.193 2159.25 293.076 2168.26C287.959 2177.26 280.805 2184.51 271.614 2190.01C262.518 2195.51 251.668 2199.44 239.066 2201.81C226.558 2204.18 212.866 2205.36 197.99 2205.36C189.272 2205.36 180.602 2204.7 171.98 2203.37C163.357 2202.05 155.161 2200.15 147.391 2197.69C139.621 2195.13 132.372 2192.05 125.645 2188.44C119.012 2184.75 113.232 2180.63 108.305 2176.08C103.472 2171.43 99.6345 2166.36 96.7919 2160.87C94.044 2155.27 92.67 2149.3 92.67 2142.95C92.67 2138.12 93.4281 2133.9 94.9442 2130.3C96.4602 2126.7 98.4501 2123.76 100.914 2121.49C103.472 2119.12 106.362 2117.36 109.584 2116.23C112.805 2115.09 116.169 2114.52 119.675 2114.52C123.939 2114.52 128.203 2115.33 132.467 2116.94C136.731 2118.55 140.569 2120.92 143.98 2124.04C147.391 2127.17 150.139 2131.01 152.223 2135.56C154.403 2140.11 155.492 2145.32 155.492 2151.2C155.492 2152.62 156.156 2154.14 157.482 2155.75C158.904 2157.36 160.893 2158.87 163.452 2160.3C166.105 2161.62 169.374 2162.76 173.259 2163.71C177.144 2164.66 181.597 2165.13 186.619 2165.13C193.631 2165.13 199.222 2164.7 203.391 2163.85C207.56 2162.9 210.734 2161.67 212.914 2160.15C215.188 2158.64 216.657 2156.93 217.32 2155.04C217.983 2153.14 218.315 2151.25 218.315 2149.35C218.315 2146.98 216.562 2144.9 213.056 2143.09C209.55 2141.29 204.954 2139.49 199.269 2137.69C193.584 2135.8 187.046 2133.81 179.655 2131.72C172.359 2129.64 164.92 2127.17 157.34 2124.33C149.76 2121.39 142.274 2117.93 134.883 2113.95C127.587 2109.97 121.096 2105.18 115.411 2099.59C109.726 2093.91 105.13 2087.32 101.624 2079.83C98.1184 2072.25 96.3655 2063.44 96.3655 2053.39C96.3655 2043.44 97.5499 2034.53 99.9188 2026.66C102.382 2018.8 105.794 2011.83 110.152 2005.77C114.606 1999.7 119.912 1994.53 126.071 1990.27C132.23 1985.91 139.052 1982.36 146.538 1979.61C154.118 1976.76 162.22 1974.73 170.843 1973.49C179.56 1972.17 188.609 1971.5 197.99 1971.5C214.761 1971.5 229.022 1973.21 240.772 1976.62C252.616 1979.94 262.233 1984.25 269.624 1989.56C277.015 1994.87 282.369 2000.79 285.685 2007.33C289.096 2013.77 290.802 2020.08 290.802 2026.24C290.802 2031.83 289.618 2036.66 287.249 2040.74C284.88 2044.81 281.8 2048.18 278.01 2050.83C274.22 2053.48 269.909 2055.43 265.076 2056.66C260.244 2057.89 255.364 2058.51 250.437 2058.51C245.699 2058.51 241.056 2057.99 236.508 2056.94C232.054 2055.9 228.074 2054.34 224.569 2052.25C221.157 2050.17 218.362 2047.66 216.183 2044.72C214.098 2041.69 213.056 2038.23 213.056 2034.34C213.056 2031.5 213.672 2029.36 214.904 2027.94C216.23 2026.52 217.651 2025.34 219.168 2024.39C220.778 2023.44 222.2 2022.49 223.431 2021.55C224.758 2020.6 225.421 2019.18 225.421 2017.28Z" fill="white"/>
<path d="M244.467 2423.72C244.467 2427.99 245.036 2431.3 246.173 2433.67C247.31 2436.04 248.731 2437.84 250.437 2439.08C252.142 2440.31 253.99 2441.16 255.98 2441.64C257.97 2442.11 259.817 2442.63 261.523 2443.2C263.228 2443.77 264.65 2444.57 265.787 2445.62C266.924 2446.56 267.492 2448.17 267.492 2450.45C267.492 2462.3 261.381 2470.87 249.157 2476.18C236.934 2481.39 219.262 2484 196.142 2484C184.961 2484 175.012 2483.38 166.294 2482.15C157.672 2480.83 150.376 2478.83 144.406 2476.18C138.531 2473.43 134.03 2469.93 130.904 2465.66C127.871 2461.4 126.355 2456.33 126.355 2450.45C126.355 2448.17 126.924 2446.56 128.061 2445.62C129.198 2444.57 130.572 2443.82 132.183 2443.34C133.888 2442.77 135.689 2442.25 137.584 2441.78C139.574 2441.3 141.374 2440.5 142.985 2439.36C144.69 2438.13 146.112 2436.38 147.249 2434.1C148.386 2431.83 148.954 2428.56 148.954 2424.29V2288.1L133.036 2288.67L127.492 2311.41C125.976 2316.53 124.129 2320.84 121.949 2324.35C119.77 2327.86 117.401 2330.75 114.843 2333.02C112.284 2335.2 109.584 2336.81 106.741 2337.86C103.898 2338.8 101.008 2339.28 98.0711 2339.28C94.7546 2339.28 91.6277 2338.71 88.6904 2337.57C85.8477 2336.43 83.3367 2334.82 81.1574 2332.74C79.0728 2330.65 77.4145 2328.09 76.1827 2325.06C75.0457 2322.03 74.4772 2318.62 74.4772 2314.83C74.4772 2309.14 75.2826 2302.98 76.8934 2296.34C78.599 2289.62 81.11 2283.41 84.4264 2277.72C87.8376 2271.94 92.1015 2267.15 97.2183 2263.36C102.335 2259.48 108.352 2257.53 115.269 2257.53H278.294C285.211 2257.53 291.181 2259.43 296.203 2263.22C301.32 2267.01 305.536 2271.8 308.853 2277.58C312.264 2283.27 314.775 2289.43 316.386 2296.06C318.091 2302.69 318.944 2308.85 318.944 2314.54C318.944 2318.33 318.328 2321.74 317.096 2324.78C315.959 2327.81 314.349 2330.37 312.264 2332.45C310.179 2334.54 307.668 2336.15 304.731 2337.29C301.888 2338.42 298.809 2338.99 295.492 2338.99C292.555 2338.99 289.618 2338.52 286.68 2337.57C283.743 2336.62 280.948 2335.06 278.294 2332.88C275.641 2330.61 273.225 2327.72 271.046 2324.21C268.961 2320.61 267.303 2316.2 266.071 2310.99L260.528 2288.38L244.467 2287.81V2423.72Z" fill="white"/>
</svg>
